<svg width="20" height="20" viewBox="0 0 20 20" fill="none" xmlns="http://www.w3.org/2000/svg">
<path d="M10 20C15.5228 20 20 15.5228 20 10C20 4.47715 15.5228 0 10 0C4.47715 0 0 4.47715 0 10C0 15.5228 4.47715 20 10 20Z" fill="#1A847C"/>
<path fill-rule="evenodd" clip-rule="evenodd" d="M7.9348 2.56641H12.0657C14.5941 2.56641 16.6627 4.63498 16.6627 7.16332C16.6627 9.69168 14.5941 11.7602 12.0657 11.7602H7.9348C5.40658 11.7602 3.33789 9.69168 3.33789 7.16332C3.33789 4.63498 5.40658 2.56641 7.9348 2.56641Z" fill="white"/>
<path fill-rule="evenodd" clip-rule="evenodd" d="M12.065 4.36133H7.93395C6.49425 4.36133 5.31641 5.53926 5.31641 6.9789V7.34851C5.31641 8.78815 6.49425 9.96608 7.93395 9.96608H10.738L12.0042 11.1082V9.96608H12.065C13.5047 9.96608 14.6826 8.78815 14.6826 7.34851V6.9789C14.6826 5.53926 13.5047 4.36133 12.065 4.36133Z" fill="#232828"/>
<path fill-rule="evenodd" clip-rule="evenodd" d="M8.05581 12.6671C6.40319 12.9784 5.29466 13.5829 4.8472 15.1594C4.59356 16.0528 4.60481 17.0404 4.74537 17.9839C6.25312 18.9782 8.05872 19.5574 9.99987 19.5574C11.9515 19.5574 13.7662 18.9719 15.2789 17.9678C15.5667 15.789 15.0482 13.7405 13.1039 12.964C11.846 12.4614 9.48983 12.397 8.05581 12.6671Z" fill="white"/>
<path fill-rule="evenodd" clip-rule="evenodd" d="M15.279 17.9672C15.5353 16.0262 15.1513 14.1886 13.6895 13.2617C14.7126 14.5648 14.7295 16.6198 14.1937 18.5894C14.57 18.4053 14.9324 18.1972 15.279 17.9672Z" fill="url(#paint0_linear_3026_3266)"/>
<path d="M10.2931 18.2163H9.7084C9.40186 18.2163 9.15339 17.9675 9.15339 17.6611V16.9007H8.39876C8.09211 16.9007 7.84375 16.6521 7.84375 16.3456V15.7533C7.84375 15.4468 8.09211 15.1985 8.39876 15.1985H9.15339V14.4381C9.15339 14.1312 9.40186 13.8828 9.7084 13.8828H10.2931C10.5995 13.8828 10.8483 14.1312 10.8483 14.4381V15.1985H11.6025C11.909 15.1985 12.1577 15.4468 12.1577 15.7533V16.3456C12.1577 16.6521 11.909 16.9007 11.6025 16.9007H10.8483V17.6611C10.8483 17.9675 10.5995 18.2163 10.2931 18.2163Z" fill="#1A847C"/>
<path fill-rule="evenodd" clip-rule="evenodd" d="M11.8612 6.0293C12.1903 6.0293 12.4569 6.29599 12.4569 6.62497C12.4569 6.95399 12.1903 7.22064 11.8612 7.22064C11.5323 7.22064 11.2656 6.95399 11.2656 6.62497C11.2656 6.29599 11.5323 6.0293 11.8612 6.0293Z" fill="white"/>
<path fill-rule="evenodd" clip-rule="evenodd" d="M8.13857 6.0293C8.46766 6.0293 8.73424 6.29599 8.73424 6.62497C8.73424 6.95399 8.46766 7.22064 8.13857 7.22064C7.80966 7.22064 7.54297 6.95399 7.54297 6.62497C7.54297 6.29599 7.80966 6.0293 8.13857 6.0293Z" fill="white"/>
<path d="M10.8373 7.97899C10.6283 8.21328 10.2437 8.35739 9.82772 8.35739C9.40768 8.35739 9.01998 8.21039 8.8125 7.97266" stroke="white" stroke-width="0.3" stroke-miterlimit="22.9256"/>
<defs>
<linearGradient id="paint0_linear_3026_3266" x1="12.2078" y1="22.8123" x2="13.0561" y2="23.1976" gradientUnits="userSpaceOnUse">
<stop stop-color="#EBF8F8"/>
<stop offset="1" stop-color="#FEFEFE"/>
</linearGradient>
</defs>
</svg>
