<svg width="32" height="32" viewBox="0 0 32 32" fill="none" xmlns="http://www.w3.org/2000/svg">
<g clip-path="url(#clip0_3113_21364)">
<path d="M16 32C11.7566 32 7.68689 30.3142 4.68644 27.3136C1.68592 24.3129 0 20.2434 0 16C0 11.7566 1.68576 7.68689 4.68644 4.68644C7.68709 1.68592 11.7566 0 16 0C20.2434 0 24.3131 1.68576 27.3136 4.68644C30.3141 7.68709 32 11.7566 32 16C32 20.2434 30.3142 24.3131 27.3136 27.3136C24.3129 30.3141 20.2434 32 16 32ZM16 2.46154C12.4094 2.46154 8.96591 3.88795 6.42691 6.42691C3.88795 8.96574 2.46154 12.4094 2.46154 16C2.46154 19.5906 3.88795 23.0341 6.42691 25.5731C8.96574 28.112 12.4094 29.5385 16 29.5385C19.5906 29.5385 23.0341 28.112 25.5731 25.5731C28.112 23.0343 29.5385 19.5906 29.5385 16C29.5385 12.4094 28.112 8.96591 25.5731 6.42691C23.0343 3.88795 19.5906 2.46154 16 2.46154Z" fill="#D1441A"/>
<path d="M16 0C11.7566 0 7.68689 1.68576 4.68644 4.68644C1.68592 7.68709 0 11.7566 0 16C0 20.2434 1.68576 24.3131 4.68644 27.3136C7.68709 30.3141 11.7566 32 16 32C20.2434 32 24.3131 30.3142 27.3136 27.3136C30.3141 24.3129 32 20.2434 32 16C32 11.7566 30.3142 7.68689 27.3136 4.68644C24.3129 1.68592 20.2434 0 16 0ZM16 7.38462C17.3056 7.38462 18.558 7.90334 19.4813 8.82655C20.4046 9.74976 20.9232 11.0021 20.9232 12.3078C20.9232 13.6136 20.4045 14.8658 19.4813 15.7891C18.5581 16.7124 17.3058 17.231 16 17.231C14.6942 17.231 13.442 16.7123 12.5187 15.7891C11.5954 14.8659 11.0768 13.6136 11.0768 12.3078C11.0768 11.0021 11.5955 9.74986 12.5187 8.82655C13.4419 7.90324 14.6942 7.38462 16 7.38462ZM16 29.5385C14.2151 29.5374 12.4482 29.1835 10.8006 28.4971C9.15302 27.8105 7.65748 26.8051 6.4 25.5385C7.38462 22.154 11.3231 19.6925 16 19.6925C20.6769 19.6925 24.6154 22.154 25.6 25.5385C24.3424 26.8051 22.8469 27.8105 21.1994 28.4971C19.552 29.1835 17.7848 29.5374 16 29.5385Z" fill="#D1441A"/>
</g>
<defs>
<clipPath id="clip0_3113_21364">
<rect width="32" height="32" fill="white"/>
</clipPath>
</defs>
</svg>
