<svg width="20" height="16" viewBox="0 0 20 16" fill="none" xmlns="http://www.w3.org/2000/svg">
<path d="M4.92097 5.32812V10.6621H1.48355C0.66372 10.6621 0 9.95809 0 9.09074V6.89952C0 6.03114 0.664703 5.32812 1.48355 5.32812H4.92097Z" fill="#1A847C"/>
<path d="M9.83203 0.00250454V5.32819H4.9209V1.66646C4.9209 0.74712 5.6239 0.00146484 6.49184 0.00146484H9.83203V0.00250454Z" fill="#E95D53"/>
<path d="M9.83203 11.792V15.9966H6.65091C5.69555 15.9966 4.9209 15.176 4.9209 14.1642V10.6626H8.80797L9.83203 11.792Z" fill="#5958EF"/>
<path d="M17.182 2.10415C15.829 0.691873 13.9371 -0.0475472 11.7869 0.00237137H9.83203V5.32803H13.3028C14.1226 5.32803 14.7863 6.03209 14.7863 6.89943V9.09065C14.7863 9.95904 14.1216 10.662 13.3028 10.662H10.8463L9.83203 11.7914V15.9961H11.7869C15.8526 16.1229 19.289 13.1767 19.3372 7.99871C19.2959 5.47262 18.4918 3.47171 17.182 2.10415Z" fill="#272A3D"/>
<path d="M4.9209 5.32812V10.6621H8.80797L9.83203 11.7915V5.32812H4.9209Z" fill="#272A3D"/>
</svg>
