<svg width="23" height="23" viewBox="0 0 23 23" fill="none" xmlns="http://www.w3.org/2000/svg">
<g id="fa-brands fa-facebook" clip-path="url(#clip0_3814_15481)">
<path id="Vector" d="M22.1562 11.5C22.1562 5.61328 17.3867 0.84375 11.5 0.84375C5.61328 0.84375 0.84375 5.61328 0.84375 11.5C0.84375 16.8187 4.74059 21.2273 9.83496 22.0273V14.5804H7.12793V11.5H9.83496V9.15219C9.83496 6.48168 11.4248 5.00656 13.8598 5.00656C15.026 5.00656 16.2455 5.21453 16.2455 5.21453V7.83563H14.9014C13.578 7.83563 13.165 8.65719 13.165 9.4998V11.5H16.1204L15.6478 14.5804H13.165V22.0273C18.2594 21.2273 22.1562 16.8187 22.1562 11.5Z" fill="#4267B2"/>
</g>
<defs>
<clipPath id="clip0_3814_15481">
<rect width="22" height="22" fill="white" transform="translate(0.5 0.5)"/>
</clipPath>
</defs>
</svg>
