<svg width="44" height="42" viewBox="0 0 44 42" fill="none" xmlns="http://www.w3.org/2000/svg">
    <path d="M43.5834 19.5568C45.9031 31.3859 38.4877 37.4371 22.5321 37.4371C9.87774 37.4371 0 32.6923 0 21.7919C0 14.2532 5.58762 -2.23586 23.468 3.35307C30.9868 5.70324 28.4968 8.9402 34.6432 10.0578C36.8783 10.4642 42.094 11.9613 43.5834 19.5568Z" fill="#E95D53" fill-opacity="0.2"/>
    <path d="M14.0779 7.0799L14.0879 7.08941L14.0983 7.09842L14.7152 7.6311L15.1037 7.96664L15.4772 7.61458L15.4772 7.61456L15.4773 7.61454L15.4773 7.61449L15.4776 7.6142L15.4797 7.61223L15.4892 7.60338L15.5283 7.56721C15.563 7.53532 15.6145 7.48851 15.6799 7.43021C15.8109 7.31348 15.9972 7.15143 16.217 6.97131C16.6627 6.60615 17.2228 6.18622 17.731 5.91184C18.7663 5.35282 19.9345 5.03772 21.1217 5.03772C24.928 5.03772 27.9284 8.07848 27.9284 11.981C27.9284 14.6631 26.5257 17.1107 24.1204 19.7781C22.3799 21.7082 20.1719 23.6943 17.6883 25.9283C16.8507 26.6817 15.9817 27.4633 15.0888 28.2805C14.1295 27.3942 13.2091 26.5574 12.3325 25.7603C9.75994 23.4213 7.56461 21.4252 5.86921 19.5289C3.52986 16.9123 2.24572 14.593 2.24572 11.981C2.24572 8.07848 5.24607 5.03772 9.05241 5.03772C10.9235 5.03772 12.743 5.80922 14.0779 7.0799Z" fill="#E95D53" stroke="#E43124" stroke-width="1.13793"/>
    <path d="M2.79492 16.7083L6.82382 16.7082L8.0567 14.5796L9.28959 17.9854L11.1389 15.8568L12.3718 20.114L14.8376 11.1738L17.2813 17.9854L19.7471 15.8568L21.0791 16.7082L30.733 16.7928" stroke="white" stroke-width="1.13793" stroke-linecap="round" stroke-linejoin="round"/>
    <circle cx="30.2896" cy="30.5396" r="10.4848" fill="#F9F9F9" stroke="#1A847C" stroke-width="0.648621"/>
    <path d="M21.689 31.4509C21.6574 31.1511 21.6426 30.8481 21.6426 30.5399C21.6426 25.7644 25.5144 21.8926 30.2899 21.8926C35.0653 21.8926 38.9372 25.7644 38.9372 30.5399C38.9372 30.9875 38.9034 31.4266 38.838 31.8562C38.6332 33.1978 38.116 34.4403 37.3686 35.5043L34.717 33.6401C35.3335 32.7629 35.6945 31.6936 35.6945 30.5399C35.6945 27.5547 33.2751 25.1353 30.2899 25.1353C27.3047 25.1353 24.8853 27.5547 24.8853 30.5399C24.8853 31.8034 25.3181 32.9656 26.0444 33.8861L23.5067 35.8896C22.5124 34.6313 21.8896 33.1208 21.7038 31.5279C21.6996 31.4994 21.6954 31.4741 21.689 31.4509Z" fill="#1A847C"/>
    <path fill-rule="evenodd" clip-rule="evenodd" d="M21.6416 30.551C21.642 30.8547 21.6568 31.1534 21.688 31.4489C21.689 31.4526 21.69 31.4563 21.6909 31.4601C21.6585 31.1581 21.6421 30.8547 21.6416 30.551ZM21.6417 30.506C21.6493 28.3879 22.4187 26.4492 23.6901 24.9494C22.8518 25.9392 22.2433 27.1094 21.9163 28.3757C21.7356 29.0755 21.6443 29.7911 21.6417 30.506ZM24.5807 24.0424L26.7211 26.478C27.6729 25.641 28.9216 25.1334 30.2889 25.1334C31.7815 25.1334 33.1326 25.7382 34.1106 26.7162L36.4034 24.4235C34.8385 22.8586 32.6766 21.8906 30.2889 21.8906C28.1015 21.8906 26.1037 22.703 24.5807 24.0424ZM36.8859 24.9472C37.8478 26.0823 38.5034 27.4499 38.7834 28.9193C38.8807 29.43 38.9313 29.9459 38.9359 30.4609C38.9175 28.3593 38.1494 26.4366 36.8859 24.9472ZM38.936 30.5988C38.9279 31.755 38.6878 32.9039 38.2237 33.9754C38.1413 34.1655 38.0523 34.3522 37.957 34.5351C38.3883 33.7105 38.6915 32.8074 38.837 31.8543C38.8995 31.4441 38.9331 31.0253 38.936 30.5988Z" fill="#FFCC29" fill-opacity="0.98"/>
    <path fill-rule="evenodd" clip-rule="evenodd" d="M21.6416 30.553C21.642 30.8567 21.6568 31.1553 21.688 31.4509C21.689 31.4546 21.69 31.4583 21.6909 31.4621C21.6585 31.1601 21.6421 30.8566 21.6416 30.553ZM21.6417 30.508C21.6493 28.3899 22.4187 26.4511 23.6901 24.9514C22.8518 25.9412 22.2433 27.1113 21.9163 28.3777C21.7356 29.0774 21.6443 29.7931 21.6417 30.508ZM24.5807 24.0444L26.7211 26.48C27.6729 25.6429 28.9216 25.1353 30.2889 25.1353C31.7815 25.1353 33.1326 25.7402 34.1106 26.7182L36.4034 24.4254C34.8385 22.8605 32.6766 21.8926 30.2889 21.8926C28.1015 21.8926 26.1037 22.7049 24.5807 24.0444ZM36.8861 24.9495C37.8479 26.0845 38.5034 27.4519 38.7834 28.9212C38.8807 29.4319 38.9313 29.9478 38.9359 30.4628C38.9175 28.3614 38.1494 26.4388 36.8861 24.9495ZM38.936 30.6007C38.9279 31.757 38.6878 32.9058 38.2237 33.9773C38.1413 34.1675 38.0523 34.3542 37.957 34.5371C38.3883 33.7125 38.6915 32.8094 38.837 31.8562C38.8995 31.4461 38.9331 31.0273 38.936 30.6007Z" fill="#F19A48"/>
    <path fill-rule="evenodd" clip-rule="evenodd" d="M36.406 24.4238L36.2354 24.5944L34.1133 26.7165C35.09 27.6944 35.694 29.0446 35.694 30.5361C35.694 31.6899 35.333 32.7592 34.7165 33.6364L37.3681 35.5005C38.1155 34.4365 38.6327 33.1941 38.8375 31.8524C38.9029 31.4228 38.9367 30.9837 38.9367 30.5361C38.9367 28.1495 37.9696 25.9886 36.406 24.4238Z" fill="#E95D53"/>
    <path fill-rule="evenodd" clip-rule="evenodd" d="M30.2882 32.7006C31.4821 32.7006 32.45 31.7327 32.45 30.5388C32.45 29.3448 31.4821 28.377 30.2882 28.377C29.5814 28.377 28.9539 28.7161 28.5594 29.2406L23.8037 30.5376L28.5571 31.834C28.9515 32.3601 29.5801 32.7006 30.2882 32.7006Z" fill="#272A3D"/>
    <path d="M41.1087 2.39469C41.1087 3.83151 39.6719 8.14196 39.6719 8.14196H37.7562C37.7562 8.14196 36.3193 3.83151 36.3193 2.39469C36.3193 1.07282 37.3922 0 38.714 0C40.0359 0 41.1087 1.07282 41.1087 2.39469ZM38.714 9.57877C37.6604 9.57877 36.7983 10.4409 36.7983 11.4945C36.7983 12.5482 37.6604 13.4103 38.714 13.4103C39.7677 13.4103 40.6298 12.5482 40.6298 11.4945C40.6298 10.4409 39.7677 9.57877 38.714 9.57877Z" fill="#E95D53"/>
</svg>
