<svg width="191" height="131" viewBox="0 0 191 131" fill="none" xmlns="http://www.w3.org/2000/svg">
<path d="M94.8438 130.162C125.772 130.162 150.844 105.09 150.844 74.1621C150.844 43.2342 125.772 18.1621 94.8438 18.1621C63.9158 18.1621 38.8438 43.2342 38.8438 74.1621C38.8438 105.09 63.9158 130.162 94.8438 130.162Z" fill="#D3E5E5" stroke="#138375" stroke-width="1.33304" stroke-miterlimit="2.61313"/>
<path fill-rule="evenodd" clip-rule="evenodd" d="M86.6629 68.7724C80.2522 69.9799 75.9522 72.325 74.2162 78.4402C72.3818 84.9026 74.1186 92.6329 76.0208 98.1623C79.1902 107.378 88.9513 121.334 100.754 114.614C112.352 108.01 123.095 76.6543 106.245 69.924C101.365 67.9745 92.2257 67.7245 86.6629 68.7724Z" fill="white"/>
<path fill-rule="evenodd" clip-rule="evenodd" d="M86.1914 29.5879H102.216C112.023 29.5879 120.048 37.6122 120.048 47.4199C120.048 57.2278 112.023 65.2519 102.216 65.2519H86.1914C76.3841 65.2519 68.3594 57.2278 68.3594 47.4199C68.3594 37.6122 76.3841 29.5879 86.1914 29.5879Z" fill="white"/>
<path fill-rule="evenodd" clip-rule="evenodd" d="M102.216 36.5508H86.191C80.6062 36.5508 76.0371 41.1201 76.0371 46.7048V48.1385C76.0371 53.723 80.6062 58.2924 86.191 58.2924H97.0684L101.98 62.7229V58.2924H102.216C107.801 58.2924 112.37 53.723 112.37 48.1385V46.7048C112.37 41.1201 107.801 36.5508 102.216 36.5508Z" fill="#232828"/>
<path d="M95.6011 98.0958H92.8059C91.3402 98.0958 90.1523 96.9065 90.1523 95.4411V91.8056H86.5442C85.0781 91.8056 83.8906 90.6169 83.8906 89.1517V86.32C83.8906 84.8547 85.0781 83.6672 86.5442 83.6672H90.1523V80.0315C90.1523 78.5643 91.3402 77.377 92.8059 77.377H95.6011C97.0663 77.377 98.2555 78.5643 98.2555 80.0315V83.6672H101.862C103.327 83.6672 104.516 84.8547 104.516 86.32V89.1517C104.516 90.6169 103.327 91.8056 101.862 91.8056H98.2555V95.4411C98.2555 96.9065 97.0663 98.0958 95.6011 98.0958Z" fill="#1A837C"/>
<path fill-rule="evenodd" clip-rule="evenodd" d="M101.424 43.0215C102.7 43.0215 103.734 44.0561 103.734 45.3323C103.734 46.6086 102.7 47.6429 101.424 47.6429C100.148 47.6429 99.1133 46.6086 99.1133 45.3323C99.1133 44.0561 100.148 43.0215 101.424 43.0215Z" fill="white"/>
<path fill-rule="evenodd" clip-rule="evenodd" d="M86.9822 43.0215C88.2588 43.0215 89.2929 44.0561 89.2929 45.3323C89.2929 46.6086 88.2588 47.6429 86.9822 47.6429C85.7063 47.6429 84.6719 46.6086 84.6719 45.3323C84.6719 44.0561 85.7063 43.0215 86.9822 43.0215Z" fill="white"/>
<path d="M97.452 50.585C96.6415 51.4939 95.1496 52.0529 93.5358 52.0529C91.9064 52.0529 90.4024 51.4827 89.5977 50.5605" stroke="white" stroke-width="0.666709" stroke-miterlimit="22.9256"/>
<path fill-rule="evenodd" clip-rule="evenodd" d="M73.9285 74.291C66.6701 77.2786 62.3387 87.3784 66.2596 93.537C69.0621 97.9391 70.3427 103.83 72.2682 98.5709C73.064 96.3976 72.7829 96.3634 72.4405 94.0696L70.7118 82.487C70.233 79.2777 71.6114 76.4209 73.9285 74.291Z" fill="white"/>
<path fill-rule="evenodd" clip-rule="evenodd" d="M114.479 74.291C121.737 77.277 126.068 87.3719 122.148 93.5275C119.345 97.9274 118.065 103.815 116.139 98.5588C115.343 96.3867 115.624 96.3525 115.967 94.0598L117.695 82.483C118.174 79.2753 116.796 76.4198 114.479 74.291Z" fill="white"/>
<path fill-rule="evenodd" clip-rule="evenodd" d="M108.707 71.2539L110.36 74.3626C111.918 77.6798 112.035 83.3781 111.432 86.9311C110.922 89.9396 110.406 91.948 109.542 94.5646L106.673 101.22C104.343 105.386 101.858 108.941 97.9298 111.524C90.7161 116.269 84.5069 111.125 83.5645 110.873C83.9271 111.415 84.3861 111.814 84.8973 112.207C86.7732 113.649 87.3303 114.378 89.9823 115.502C91.0957 115.975 92.162 116.264 93.1886 116.397H95.8687C98.5862 116.039 101.029 114.622 103.347 112.751C106.921 109.866 109.836 104.478 111.69 100.332C113.15 97.0654 114.838 90.9403 114.993 87.2437V84.0692C114.887 81.5007 114.489 79.4355 113.662 77.3466C113.047 75.7945 112.606 75.1124 111.649 73.8359C111.077 73.0737 109.604 71.4933 108.707 71.2539Z" fill="#F6FBFB"/>
<path fill-rule="evenodd" clip-rule="evenodd" d="M108.709 71.2551V71.0645L108.486 71.2233L108.709 71.2551Z" fill="#F6FBFB"/>
<path fill-rule="evenodd" clip-rule="evenodd" d="M116.517 75.4453C116.872 75.9751 117.182 76.1472 117.604 76.6437C121.023 80.6617 123.124 86.9335 120.006 92.0772L116.723 98.1328C116.299 98.7416 116.065 98.8467 116.569 99.763C116.935 100.43 117.243 100.588 118.231 100.588C119.11 99.2764 122.772 92.6471 123.164 91.426C124.035 88.716 123.759 85.9907 122.828 83.4197C122.057 81.2901 121.195 79.8819 119.814 78.2435C119.044 77.3299 117.67 75.7533 116.517 75.4453Z" fill="#F4FAFA"/>
<path fill-rule="evenodd" clip-rule="evenodd" d="M116.517 75.4462V75.2559L116.295 75.4144L116.517 75.4462Z" fill="#F4FAFA"/>
<path fill-rule="evenodd" clip-rule="evenodd" d="M64.7051 88.0177C64.7051 89.7872 64.9737 90.7408 65.4397 92.0451C65.8477 93.1887 66.5076 93.9153 67.0572 94.9989C67.8628 96.5875 70.4901 103.263 71.9704 99.4494C72.2277 98.7868 71.9193 98.4262 71.5666 97.9212L68.2629 91.8885C65.6373 87.1997 67.1118 81.7118 69.9281 77.8121C70.286 77.3161 70.5328 76.9573 70.9395 76.5378C71.4052 76.0571 71.7795 75.7848 72.1337 75.2559C70.5267 75.6848 67.93 78.8565 67.0682 80.2856C65.9263 82.179 64.7051 85.0991 64.7051 88.0177Z" fill="#F4FAFA"/>
<path fill-rule="evenodd" clip-rule="evenodd" d="M136.102 49.4933L121.088 56L126.945 42.0974C123.422 37.8747 121.373 32.7411 121.373 27.1748C121.373 25.0993 121.671 23.0411 122.254 21.0496C124.142 14.5997 128.803 9.42665 134.425 5.91771C140.871 1.89472 148.56 0 156.123 0C164.873 0 174.036 2.56057 180.944 8.07239C186.875 12.8054 190.999 19.4398 190.999 27.1748C190.999 38.5866 182.213 47.3835 172.157 51.4408C167.056 53.4981 161.617 54.4846 156.123 54.4846C149.19 54.4846 142.205 52.8068 136.102 49.4933Z" fill="#D3E5E5"/>
<path d="M189.332 27.175C189.332 20.2688 185.749 14.0253 179.905 9.37645C173.927 4.59227 165.422 1.66797 156.123 1.66797C137.786 1.66797 123.041 13.094 123.041 27.175C123.041 32.6234 125.163 37.6731 128.886 41.7883L124.239 52.8172L136.195 47.6358C141.774 50.8241 148.68 52.8172 156.123 52.8172C161.702 52.8172 166.883 51.7526 171.533 49.8942C182.028 45.6426 189.332 37.0058 189.332 27.175Z" fill="#FEFEFE" stroke="#D3E5E5" stroke-width="0.288" stroke-miterlimit="10"/>
<path fill-rule="evenodd" clip-rule="evenodd" d="M143.027 28.9542C140.696 28.8084 140.894 29.4828 140.894 26.2584L140.894 14.2765C140.891 13.2775 140.885 12.9616 141.949 12.9616H155.819C156.396 12.9616 156.779 13.0013 156.865 13.5605L156.88 24.5768C155.84 24.6347 154.451 24.4022 153.635 24.8515C152.186 25.6495 152.582 27.1912 152.51 28.9449L148.944 28.9549C148.994 29.1042 149.936 30.299 150.026 30.3511C150.248 30.4791 152.104 30.3989 152.523 30.406C152.516 30.8479 152.434 32.708 152.598 32.9347C152.703 33.0784 153.888 34.0145 153.97 34.0495C154.058 32.4 153.983 29.2083 153.977 27.3002C153.974 26.3828 153.994 26.0461 154.972 26.0459L169.038 26.0462C169.888 26.0462 169.967 26.3636 169.963 27.1697L169.964 41.1082C169.958 41.9365 169.634 42.0339 168.843 42.0297L154.972 42.029C153.656 42.032 154.055 41.3146 153.966 39.8959C153.765 39.9814 153.108 40.5803 152.954 40.7152C152.76 40.8847 152.546 40.9305 152.519 41.2388C152.498 41.4816 152.557 41.777 152.634 42.0054C152.963 42.9869 153.681 43.477 154.972 43.4803L168.842 43.4805C169.725 43.4805 170.214 43.3688 170.725 42.922C171.15 42.55 171.413 41.9721 171.414 41.1705V27.1048C171.414 25.2289 170.526 24.589 168.712 24.589L158.341 24.5859C158.254 21.7408 158.334 18.7643 158.334 15.9044C158.334 14.4841 158.551 13.0082 157.742 12.1577C156.908 11.281 155.518 11.5119 154.061 11.5119C152.818 11.5119 141.812 11.4165 141.127 11.5581C139.722 11.8492 139.443 12.9683 139.443 14.2116V27.8863C139.443 29.5466 140.262 30.4669 141.928 30.3958C142.155 30.1266 142.926 29.183 143.027 28.9542Z" fill="#232828"/>
<path fill-rule="evenodd" clip-rule="evenodd" d="M143.085 18.0453L151.707 18.063C151.613 19.4994 149.976 21.8687 149.288 22.033C148.638 21.2457 147.234 20.1185 146.654 18.8204C146.393 18.8805 145.551 19.3353 145.384 19.4855C145.491 19.8846 146.404 21.0412 146.66 21.3503L148.156 23.0018C147.109 23.964 144.624 24.8408 144.246 25.0939L144.683 26.4176C145.149 26.3849 146.671 25.5946 147.161 25.3479C148.024 24.9143 149.003 24.1662 149.372 23.9787C150.089 24.376 151.244 25.3181 152.262 25.5374L152.766 24.177C152.164 23.9791 151.049 23.3648 150.604 23.0018C150.69 22.7718 151.68 21.8645 152.256 20.8674C153.12 19.3722 152.898 18.983 153.214 18.05L155.426 18.0394L155.422 16.5949L150.348 16.5916L150.32 15.1445L148.89 15.1683L148.883 16.587L143.08 16.5991L143.085 18.0453Z" fill="#232828"/>
<path fill-rule="evenodd" clip-rule="evenodd" d="M161.954 30.7686C162.073 30.9301 163.379 34.5627 163.391 34.828L160.524 34.8042L161.954 30.7686ZM160.116 36.2156L163.893 36.2269C164.223 36.7211 164.43 37.9667 164.767 38.5378L166.526 38.525C166.492 38.1953 165.768 36.4453 165.605 36.0072C165.187 34.8862 162.891 28.7289 162.721 28.5267C162.282 28.4947 161.612 28.4398 161.23 28.5499L157.502 38.531L159.291 38.5166L160.116 36.2156Z" fill="#232828"/>
<path d="M145.758 36.7073C147.757 38.6865 147.044 38.3948 148.785 38.3948C149.52 38.3948 150.304 38.3688 151.061 38.4017L151.076 40.5138C151.198 40.4731 155.245 37.15 155.378 36.9366C155.218 36.7276 151.237 33.4275 151.07 33.3672L151.043 35.4894L144.598 35.4976L145.758 36.7073Z" fill="#1A837C"/>
<path d="M144.517 34.7181L147.389 34.7275L147.405 31.9888C147.48 31.7962 147.363 31.9674 147.524 31.847L149.552 31.843C149.479 31.6596 146.211 27.7113 145.984 27.543C145.742 27.6998 142.455 31.7092 142.408 31.8508L144.524 31.8866L144.517 34.7181Z" fill="#1A837C"/>
<path fill-rule="evenodd" clip-rule="evenodd" d="M144.518 34.7188C144.582 34.7738 144.536 34.7694 144.679 34.8083C144.771 34.8334 147.202 34.8596 147.442 34.7542C147.595 33.9737 147.324 32.5726 147.525 31.8477C147.363 31.968 147.48 31.7969 147.405 31.9895L147.389 34.7281L144.518 34.7188Z" fill="#232828"/>
</svg>
