<svg width="85" height="81" viewBox="0 0 85 81" fill="none" xmlns="http://www.w3.org/2000/svg">
<g clip-path="url(#clip0_9224_58141)">
<path d="M53.0592 45.5703H48.0822C47.8793 45.5703 47.7178 45.7356 47.7178 45.9347V50.9117C47.7178 51.1146 47.8831 51.276 48.0822 51.276H53.0592C53.2621 51.276 53.4235 51.1107 53.4235 50.9117V45.9347C53.4235 45.7319 53.2582 45.5703 53.0592 45.5703ZM48.4465 46.299H52.6948V46.4042L48.5518 50.5473H48.4465V46.299Z" fill="#489D96"/>
<path d="M55.7385 51.276H60.7155C60.9182 51.276 61.0797 51.1107 61.0797 50.9117V45.9347C61.0797 45.7319 60.9145 45.5703 60.7155 45.5703H55.7385C55.5356 45.5703 55.374 45.7356 55.374 45.9347V50.9117C55.374 51.1146 55.5393 51.276 55.7385 51.276ZM56.1027 46.299H60.351V46.4193L56.2267 50.5436H56.1065V46.2953L56.1027 46.299Z" fill="#489D96"/>
<path d="M63.3976 51.276H68.3746C68.5775 51.276 68.7389 51.1107 68.7389 50.9117V45.9347C68.7389 45.7319 68.5736 45.5703 68.3746 45.5703H63.3976C63.1948 45.5703 63.0332 45.7356 63.0332 45.9347V50.9117C63.0332 51.1146 63.1985 51.276 63.3976 51.276ZM63.7619 46.299H68.0102V46.438L63.9009 50.5473H63.7619V46.299Z" fill="#489D96"/>
<path d="M71.0616 51.276H76.0386C76.2414 51.276 76.403 51.1107 76.403 50.9117V45.9347C76.403 45.7319 76.2377 45.5703 76.0386 45.5703H71.0616C70.8587 45.5703 70.6973 45.7356 70.6973 45.9347V50.9117C70.6973 51.1146 70.8626 51.276 71.0616 51.276ZM71.426 46.299H75.6743V46.453L71.5837 50.5436H71.4297V46.2953L71.426 46.299Z" fill="#489D96"/>
<path d="M53.0592 53.4844H48.0822C47.8793 53.4844 47.7178 53.6497 47.7178 53.8487V58.8257C47.7178 59.0285 47.8831 59.1901 48.0822 59.1901H53.0592C53.2621 59.1901 53.4235 59.0248 53.4235 58.8257V53.8487C53.4235 53.6459 53.2582 53.4844 53.0592 53.4844ZM48.4465 54.2131H52.6948V54.3371L48.5705 58.4614H48.4465V54.2131Z" fill="#489D96"/>
<path d="M55.7385 59.1901H60.7155C60.9182 59.1901 61.0797 59.0248 61.0797 58.8257V53.8487C61.0797 53.6459 60.9145 53.4844 60.7155 53.4844H55.7385C55.5356 53.4844 55.374 53.6497 55.374 53.8487V58.8257C55.374 59.0285 55.5393 59.1901 55.7385 59.1901ZM56.1027 54.2131H60.351V54.3521L56.2417 58.4614H56.1027V54.2131Z" fill="#489D96"/>
<path d="M63.3976 59.1901H68.3746C68.5775 59.1901 68.7389 59.0248 68.7389 58.8257V53.8487C68.7389 53.6459 68.5736 53.4844 68.3746 53.4844H63.3976C63.1948 53.4844 63.0332 53.6497 63.0332 53.8487V58.8257C63.0332 59.0285 63.1985 59.1901 63.3976 59.1901ZM63.7619 54.2131H68.0102V54.3671L63.9198 58.4577H63.7658V54.2094L63.7619 54.2131Z" fill="#489D96"/>
<path d="M71.0616 59.1901H76.0386C76.2414 59.1901 76.403 59.0248 76.403 58.8257V53.8487C76.403 53.6459 76.2377 53.4844 76.0386 53.4844H71.0616C70.8587 53.4844 70.6973 53.6497 70.6973 53.8487V58.8257C70.6973 59.0285 70.8626 59.1901 71.0616 59.1901ZM71.426 54.2131H75.6743V54.2281L71.4447 58.4577H71.4297V54.2094L71.426 54.2131Z" fill="#489D96"/>
<path d="M53.0592 61.3906H48.0822C47.8793 61.3906 47.7178 61.5559 47.7178 61.7551V66.7321C47.7178 66.9349 47.8831 67.0963 48.0822 67.0963H53.0592C53.2621 67.0963 53.4235 66.9311 53.4235 66.7321V61.7551C53.4235 61.5522 53.2582 61.3906 53.0592 61.3906ZM48.4465 66.3489V62.1193H52.6761L48.4465 66.3489Z" fill="#489D96"/>
<path d="M61.0797 66.7321V61.7551C61.0797 61.5522 60.9145 61.3906 60.7155 61.3906H55.7385C55.5356 61.3906 55.374 61.5559 55.374 61.7551V66.7321C55.374 66.9349 55.5393 67.0963 55.7385 67.0963H60.7155C60.9182 67.0963 61.0797 66.9311 61.0797 66.7321ZM56.1027 66.3676V62.1193H60.351L56.1027 66.3676Z" fill="#489D96"/>
<path d="M63.3976 67.0963H68.3746C68.5775 67.0963 68.7389 66.9311 68.7389 66.7321V61.7551C68.7389 61.5522 68.5736 61.3906 68.3746 61.3906H63.3976C63.1948 61.3906 63.0332 61.5559 63.0332 61.7551V66.7321C63.0332 66.9349 63.1985 67.0963 63.3976 67.0963ZM63.7619 62.1193H68.0102V62.1345L63.7808 66.3639H63.7658V62.1156L63.7619 62.1193Z" fill="#489D96"/>
<path d="M71.0616 67.0963H76.0386C76.2414 67.0963 76.403 66.9311 76.403 66.7321V61.7551C76.403 61.5522 76.2377 61.3906 76.0386 61.3906H71.0616C70.8587 61.3906 70.6973 61.5559 70.6973 61.7551V66.7321C70.6973 66.9349 70.8626 67.0963 71.0616 67.0963ZM71.426 62.1193H75.6743V62.1532L71.4597 66.3676H71.426V62.1193Z" fill="#489D96"/>
<path d="M1.71409 17.3016H1.85683V25.3737C1.85683 25.5766 2.0221 25.738 2.22118 25.738H13.2119C13.4147 25.738 13.5762 25.5727 13.5762 25.3737V17.3016H15.0374C15.1013 17.4106 15.2177 17.4856 15.3491 17.4856H24.1913L25.4046 19.4689L24.0787 21.8353C24.0787 21.8353 24.0787 21.8429 24.0748 21.8504C24.0711 21.8616 24.0636 21.8691 24.0598 21.8804C24.0561 21.8917 24.0523 21.903 24.0486 21.9104C24.0486 21.918 24.0448 21.9217 24.0411 21.9293C24.0411 21.933 24.0411 21.9406 24.0411 21.9443C24.0411 21.9593 24.0411 21.9706 24.0373 21.9856C24.0373 21.9931 24.0373 22.0006 24.0373 22.0119V67.5899L19.188 76.7061H16.3258C16.123 76.7061 15.9614 76.8714 15.9614 77.0706V79.7713H1.62395C1.42111 79.7713 1.25959 79.9366 1.25959 80.1356C1.25959 80.3347 1.42486 80.5 1.62395 80.5H83.5208C83.7237 80.5 83.8851 80.3347 83.8851 80.1356C83.8851 79.9366 83.7198 79.7713 83.5208 79.7713H79.2989V43.0617C79.2989 42.8589 79.1336 42.6974 78.9344 42.6974H45.4628C45.26 42.6974 45.0984 42.8627 45.0984 43.0617V79.7713H40.3056V77.0706C40.3056 76.8677 40.1403 76.7061 39.9411 76.7061H37.0788L32.2296 67.5899V22.0119C32.2296 22.0119 32.2296 21.9969 32.2296 21.9856C32.2296 21.9706 32.2296 21.9593 32.2258 21.9443C32.2258 21.9367 32.2258 21.933 32.2258 21.9293C32.2258 21.9217 32.2221 21.9143 32.2184 21.9104C32.2184 21.8991 32.2108 21.8879 32.2071 21.8804C32.2033 21.8691 32.1958 21.8616 32.1921 21.8504C32.1921 21.8466 32.1921 21.8429 32.1883 21.8353L30.8624 19.4689L32.0756 17.4856H58.8838V18.8604C58.8838 19.0633 59.049 19.2247 59.2481 19.2247H60.8257V23.5857H60.4764C60.3637 23.5857 60.2548 23.6383 60.1871 23.7284C60.1196 23.8186 60.097 23.935 60.1271 24.0477L60.946 27.0114C60.991 27.1691 61.1337 27.2781 61.299 27.2781H61.701C61.701 27.8227 61.7836 28.3861 62.1817 28.7994C62.3133 28.9346 62.4634 29.036 62.595 29.1261C62.6813 29.1826 62.7603 29.2389 62.8278 29.2951C63.0231 29.4604 63.1808 29.7121 63.3048 30.054C63.41 30.347 63.4551 30.5949 63.4363 30.8164C63.3837 31.44 62.7338 31.9734 62.0728 31.932C61.84 31.917 61.6146 31.8381 61.4117 31.7104C61.4004 31.7029 61.3891 31.6954 61.3741 31.6879C61.0248 31.455 60.7581 31.0794 60.6643 30.6511C60.6228 30.4521 60.4276 30.3281 60.2323 30.3694C60.0331 30.4107 59.9093 30.6061 59.9506 30.8014C60.037 31.2071 60.236 31.5827 60.5103 31.887L49.2528 36.3944H43.949C43.7463 36.3944 43.5847 36.5597 43.5847 36.7589V39.9553C43.5847 40.1581 43.75 40.3197 43.949 40.3197H80.0726C80.2754 40.3197 80.437 40.1544 80.437 39.9553V36.7589C80.437 36.556 80.2717 36.3944 80.0726 36.3944H74.7726L63.9471 31.8306C63.9021 31.8119 63.8533 31.8006 63.8044 31.8006C64.0036 31.5301 64.135 31.2146 64.1613 30.8766C64.1876 30.5497 64.1313 30.2004 63.9884 29.806C63.8194 29.3403 63.5941 28.991 63.2973 28.7393C63.1997 28.6566 63.0983 28.5853 63.0006 28.5214C62.8879 28.4463 62.7827 28.3749 62.7076 28.2923C62.4784 28.0556 62.4297 27.68 62.4297 27.2781H62.8166C62.9818 27.2781 63.1246 27.1691 63.1696 27.0114L64.0036 24.0477C64.0336 23.9389 64.011 23.8186 63.9434 23.7284C63.8759 23.6383 63.7668 23.5857 63.6541 23.5857H63.3348V19.2247H64.6758C64.8787 19.2247 65.0403 19.0594 65.0403 18.8604V17.4856H81.4286C81.5864 17.4856 81.7254 17.3841 81.7741 17.2377C81.823 17.0913 81.7741 16.926 81.6503 16.832L75.2196 11.9227C75.2196 11.9227 75.2121 11.9189 75.2083 11.9152C75.2009 11.9076 75.1896 11.9039 75.1783 11.8964C75.167 11.8889 75.1557 11.8851 75.1444 11.8776C75.137 11.8776 75.1294 11.8701 75.1181 11.8701C75.1144 11.8701 75.1068 11.8701 75.1031 11.8663C75.0956 11.8663 75.0844 11.8588 75.0769 11.8588C75.0656 11.8588 75.0581 11.8588 75.0469 11.8551C75.0319 11.8551 75.0206 11.8513 75.0054 11.8513C75.0054 11.8513 74.998 11.8513 74.9943 11.8513H61.8887L29.3223 0.879379L29.3073 0.800497C29.2773 0.627711 29.1233 0.5 28.9467 0.5H27.309C27.1324 0.5 26.9821 0.627711 26.9484 0.800497L26.8657 1.26251L6.64976 14.6722H1.71409C0.989141 14.6722 0.399414 15.262 0.399414 15.9869C0.399414 16.7119 0.989141 17.3016 1.71409 17.3016ZM59.1054 79.452V71.147H65.2468L59.1054 79.452ZM45.8271 43.4261H78.5664V79.7713H66.0206V70.7827C66.0206 70.5799 65.8553 70.4183 65.6563 70.4183H58.741C58.5383 70.4183 58.3767 70.5836 58.3767 70.7827V79.7713H45.8308V43.4261H45.8271ZM63.6504 32.503L72.8794 36.3944H51.2023L61.1526 32.4091C61.4193 32.5519 61.7123 32.642 62.009 32.6607C62.0466 32.6607 62.0878 32.6607 62.1254 32.6607C62.6061 32.6607 63.0644 32.4767 63.425 32.18C63.4326 32.3151 63.5114 32.4429 63.6467 32.4993L63.6504 32.503ZM75.3473 12.9481L80.3318 16.7531H75.3473V12.9481ZM24.0898 16.7531H16.3258L21.0173 12.6927L24.3003 15.555L24.0861 16.7494L24.0898 16.7531ZM21.994 12.5763H24.8374L24.4543 14.7211L21.994 12.5763ZM24.9313 16.1823C24.9501 16.216 24.9726 16.2461 25.0027 16.2724C25.074 16.3363 25.1604 16.3663 25.2468 16.3663C25.3483 16.3663 25.4458 16.325 25.5173 16.2461L27.756 13.7444V16.7531H24.8261L24.9276 16.1823H24.9313ZM28.6161 6.99074L29.4951 6.01037L29.8407 7.93731H29.4613L28.6161 6.9945V6.99074ZM28.1241 7.93356C27.9213 7.93356 27.7597 8.09883 27.7597 8.29791V11.9039L26.0957 10.0483C26.077 10.0295 26.0581 10.0108 26.0394 9.99573L26.0694 9.83046L28.1278 7.5354L28.4847 7.93356H28.1278H28.1241ZM27.602 12.8242L25.0177 15.7127L25.0477 15.5399C25.059 15.5061 25.0666 15.4686 25.0666 15.431L25.8778 10.8972L27.602 12.8204V12.8242ZM24.7586 22.6691L27.4404 24.3596L24.7586 26.0499V22.6691ZM30.592 31.5076L28.1241 33.0627L25.6563 31.5076H30.592ZM25.7238 30.7789L28.1241 29.3553L30.5243 30.7789H25.7238ZM31.4934 31.8043V35.185L28.8114 33.4946L31.4934 31.8043ZM31.1591 35.8386L28.1278 37.6377L25.0966 35.8386L28.1278 33.9266L31.1591 35.8386ZM31.4934 36.4883V39.636L28.8416 38.0621L31.4934 36.4883ZM30.5281 39.9103H25.7276L28.1278 38.4867L30.5281 39.9103ZM30.5957 40.639L28.1278 42.194L25.66 40.639H30.5957ZM31.4934 40.9357V44.3163L28.8114 42.626L31.4934 40.9357ZM31.1591 44.9699L28.1278 46.7691L25.0966 44.9699L28.1278 43.058L31.1591 44.9699ZM31.4934 45.6197V48.7674L28.8416 47.1936L31.4934 45.6197ZM30.5281 49.0417H25.7276L28.1278 47.618L30.5281 49.0417ZM30.5957 49.7703L28.1278 51.3254L25.66 49.7703H30.5957ZM31.4934 50.0671V53.4477L28.8114 51.7574L31.4934 50.0671ZM31.1591 54.1013L28.1278 55.9006L25.0966 54.1013L28.1278 52.1893L31.1591 54.1013ZM31.4934 54.7511V57.8989L28.8416 56.325L31.4934 54.7511ZM30.5281 58.173H25.7276L28.1278 56.7494L30.5281 58.173ZM30.5957 58.9017L28.1278 60.4569L25.66 58.9017H30.5957ZM31.4934 59.1984V62.579L28.8114 60.8887L31.4934 59.1984ZM31.1591 63.2327L28.1278 65.0319L25.0966 63.2327L28.1278 61.3207L31.1591 63.2327ZM31.4934 63.8824V67.0301L28.8416 65.4563L31.4934 63.8824ZM30.5281 67.3044H25.7276L28.1278 65.8807L30.5281 67.3044ZM30.5957 68.0331L28.1278 69.5881L25.66 68.0331H30.5957ZM31.4934 68.3299V71.7104L28.8114 70.0201L31.4934 68.3299ZM31.1591 72.364L28.1278 74.1633L25.0966 72.364L28.1278 70.4521L31.1591 72.364ZM31.4934 73.0139V76.1616L28.8416 74.5877L31.4934 73.0139ZM30.9563 76.6911H25.2957L28.1278 75.0121L30.96 76.6911H30.9563ZM31.4934 30.4897L28.8416 28.9159L31.4934 27.342V30.4897ZM28.1278 28.4913L25.0966 26.6921L28.1278 24.7801L31.1591 26.6921L28.1278 28.4913ZM25.66 22.3611H30.5957L28.1278 23.9163L25.66 22.3611ZM24.7623 27.342L27.4141 28.9159L24.7623 30.4897V27.342ZM24.7623 31.7931L27.4443 33.4834L24.7623 35.1737V31.7931ZM24.7623 36.4771L27.4141 38.051L24.7623 39.6249V36.4771ZM24.7623 40.9281L27.4443 42.6186L24.7623 44.3089V40.9281ZM24.7623 45.6121L27.4141 47.186L24.7623 48.76V45.6121ZM24.7623 50.0633L27.4443 51.7536L24.7623 53.444V50.0633ZM24.7623 54.7473L27.4141 56.3211L24.7623 57.895V54.7473ZM24.7623 59.1984L27.4443 60.8887L24.7623 62.579V59.1984ZM24.7623 63.8824L27.4141 65.4563L24.7623 67.0301V63.8824ZM24.7623 68.3336L27.4443 70.0239L24.7623 71.7141V68.3336ZM24.7623 73.0176L27.4141 74.5914L24.7623 76.1653V73.0176ZM24.0336 69.1374V76.6987H20.0144L24.0336 69.1374ZM32.2258 69.1374L36.245 76.6987H32.2258V69.1374ZM31.4971 26.046L28.8153 24.3557L31.4971 22.6654V26.046ZM31.238 21.6363H25.0214L26.0431 19.8144H30.2163L31.238 21.6363ZM30.2238 19.082H26.0318L25.0477 17.4744H28.1241H31.2041L30.22 19.082H30.2238ZM31.3018 16.7419V14.0224H34.69V14.1276C34.69 14.3529 34.5886 14.5558 34.4083 14.6948L32.1057 16.464C31.8766 16.6404 31.5948 16.7381 31.3018 16.7457V16.7419ZM34.69 12.2157V13.2899H31.3018V8.65476H33.4993C34.1566 8.65476 34.69 9.18814 34.69 9.84173V12.1856C34.69 12.1856 34.69 12.1931 34.69 12.2006C34.69 12.2081 34.69 12.2081 34.69 12.2157ZM32.932 16.7457L34.7613 15.3409L36.3088 16.7457H32.932ZM35.2534 14.7961C35.3623 14.5933 35.4187 14.3642 35.4187 14.1238V12.565H41.624L37.2517 16.6104L35.2534 14.7924V14.7961ZM42.1911 16.7457H38.187L42.1911 13.0383V16.7457ZM42.9198 16.7457V13.0383L46.9203 16.7457H42.9198ZM47.4649 16.2573L43.4833 12.5687H47.4649V16.2573ZM52.9866 16.7457H48.8096L52.9866 13.0195V16.7457ZM48.1936 16.3137V12.5687H52.393L48.1936 16.3137ZM53.7153 16.7457V13.0195L57.8884 16.7457H53.7153ZM58.4818 16.2949L54.3087 12.5687H58.4818V16.2949ZM62.5837 23.5744H61.5431V19.2134H62.5837V23.5744ZM74.6111 16.7457H70.4116L74.6111 13.0157V16.7457ZM69.8144 12.5687H74.0138L69.8144 16.2987V12.5687ZM69.0857 12.5687V16.2761L65.0816 12.5687H69.0857ZM64.5144 13.0383L68.5184 16.7457H64.5144V13.0383ZM63.7857 16.7457H59.7816L63.7857 13.0383V16.7457ZM63.2184 12.5687L59.2143 16.2761V12.5687H63.2184ZM59.5861 11.84H35.4224V9.84923C35.4224 8.78999 34.5623 7.9298 33.503 7.9298H30.5881L29.4688 1.69072L59.59 11.84H59.5861ZM27.617 1.22871H28.6424L29.3373 5.10137L28.1316 6.4461L26.9258 5.09761L27.6207 1.22871H27.617ZM27.6396 6.9945L26.3173 8.4707L26.7568 6.01037L27.6357 6.9945H27.6396ZM26.6893 2.25791L24.9688 11.8513H21.0211C21.0211 11.8513 21.0136 11.8513 21.006 11.8513C20.9948 11.8513 20.9873 11.8513 20.976 11.8513C20.9647 11.8513 20.9497 11.8513 20.9384 11.8588C20.9271 11.8588 20.9197 11.8626 20.9121 11.8663C20.9008 11.8701 20.8896 11.8738 20.8783 11.8813C20.8708 11.8851 20.8596 11.8889 20.852 11.8926C20.8407 11.9001 20.8296 11.9039 20.8183 11.9114C20.8107 11.9189 20.8033 11.9227 20.792 11.9302C20.792 11.9302 20.7844 11.9339 20.7807 11.9377L17.6141 14.676H7.96445L26.6893 2.25416V2.25791ZM1.71409 15.4047H16.7728L15.4243 16.5729H1.71409C1.39106 16.5729 1.13188 16.31 1.13188 15.9907C1.13188 15.6714 1.39481 15.4084 1.71409 15.4084V15.4047Z" fill="#489D96"/>
</g>
<defs>
<clipPath id="clip0_9224_58141">
<rect width="84.2857" height="80" fill="white" transform="translate(0 0.5)"/>
</clipPath>
</defs>
</svg>
