<svg width="187" height="120" viewBox="0 0 187 120" fill="none" xmlns="http://www.w3.org/2000/svg">
<ellipse cx="96.578" cy="61.161" rx="58.8358" ry="58.8358" fill="#D9D9D9"/>
<mask id="mask0_8919_24870" style="mask-type:alpha" maskUnits="userSpaceOnUse" x="0" y="0" width="187" height="120">
<path d="M170.092 56.2041C155.192 93.6804 129.072 120 96.5783 120C64.0842 120 37.5201 91.9667 24.9039 65.6905C-47.413 -18.7094 64.0842 2.32834 96.5783 2.32834C129.072 2.32834 223.278 -12.6495 170.092 56.2041Z" fill="#D9D9D9"/>
</mask>
<g mask="url(#mask0_8919_24870)">
<path fill-rule="evenodd" clip-rule="evenodd" d="M117.043 113.815L117.882 122.297C111.978 126.822 104.595 129.511 96.578 129.511C96.4771 129.511 96.3766 129.511 96.2734 129.511L97.9043 113.174L117.043 113.817V113.815Z" fill="black"/>
<path fill-rule="evenodd" clip-rule="evenodd" d="M93.9675 113.812L95.5164 129.493C87.3382 129.25 79.8616 126.205 74.0186 121.286L74.8288 113.169L93.9675 113.812Z" fill="black"/>
<path fill-rule="evenodd" clip-rule="evenodd" d="M62.508 66.3339C61.5814 59.7018 62.1745 53.8749 62.3759 50.0729C67.8269 49.4349 72.4149 48.7783 77.9375 48.1324C83.5291 47.4758 89.1418 46.8298 94.8023 46.1494C95.3953 46.2315 95.9857 46.2977 96.5837 46.3665C97.1691 46.2977 97.7594 46.2315 98.3444 46.1494C104.01 46.8271 109.631 47.4758 115.217 48.1324C120.739 48.781 125.327 49.4349 130.795 50.0729C130.98 53.8722 131.573 59.7018 130.646 66.3339C128.404 82.388 126.45 98.5246 125.195 114.709C124.046 116.332 122.762 117.851 121.362 119.252C115.021 125.592 106.26 129.513 96.5814 129.513C86.9021 129.513 78.1416 125.592 71.8007 119.252C70.3924 117.843 69.1004 116.313 67.9486 114.68C66.6966 98.5061 64.7531 82.3776 62.5107 66.3312L62.508 66.3339Z" fill="#FEFEFE"/>
<path d="M96.5778 60.2471C103.522 60.2471 109.151 52.9253 109.151 43.8935C109.151 34.8617 103.522 27.54 96.5778 27.54C89.6342 27.54 84.0049 34.8617 84.0049 43.8935C84.0049 52.9253 89.6342 60.2471 96.5778 60.2471Z" fill="#DC977D"/>
<path fill-rule="evenodd" clip-rule="evenodd" d="M96.5197 56.0848L84.1982 48.9287L88.7385 67.3365L96.5778 96.9779L108.955 49.1484L96.5197 56.0848Z" fill="#D1E6E5"/>
<path fill-rule="evenodd" clip-rule="evenodd" d="M96.5777 56.083L99.1351 59.0193L97.086 61.9819L99.5668 84.9511L96.5777 96.9734L93.5859 84.9511L96.0825 61.9792L94.0176 59.0193L96.5777 56.083Z" fill="#1A847C"/>
<path fill-rule="evenodd" clip-rule="evenodd" d="M96.5776 56.085L92.1275 61.2579L82.6758 52.1031L83.6662 48.4336L96.5776 56.085Z" fill="#1A847C" fill-opacity="0.15"/>
<path fill-rule="evenodd" clip-rule="evenodd" d="M96.5781 56.085L101.026 61.2579L110.478 52.1031L109.487 48.4336L96.5781 56.085Z" fill="#1A847C" fill-opacity="0.15"/>
<path fill-rule="evenodd" clip-rule="evenodd" d="M84.1459 46.3633L76.2881 50.1226L77.3575 60.6437L86.4334 63.6436L78.6895 68.5358L96.5783 96.9753L84.1459 46.3633Z" fill="#E6E6E6"/>
<path fill-rule="evenodd" clip-rule="evenodd" d="M109.008 46.3633L116.869 50.1226L115.796 60.6437L106.723 63.6436L114.465 68.5358L96.5781 96.9753L109.008 46.3633Z" fill="#E6E6E6"/>
<path fill-rule="evenodd" clip-rule="evenodd" d="M28.6093 27.5307C28.0455 28.3275 26.6688 27.8827 26.1155 27.6604L24.18 13.0171C24.1642 12.485 24.2967 11.9767 24.5427 11.5266C24.768 11.1136 25.2151 10.9018 25.6788 10.9892C26.142 11.0765 26.4809 11.434 26.5418 11.8999L27.7251 20.8617L28.6066 27.5307H28.6093Z" fill="#F6B096"/>
<path fill-rule="evenodd" clip-rule="evenodd" d="M25.5959 25.8541C25.1962 26.7039 23.7721 26.6007 23.1922 26.5186L18.5484 13.5142C18.4267 12.9979 18.4798 12.4896 18.6754 12.0157C18.8476 11.5974 19.2396 11.3432 19.6898 11.3538C20.1423 11.3644 20.5181 11.6371 20.6718 12.0634L23.4995 19.9767L25.5986 25.8541H25.5959Z" fill="#F6B096"/>
<path fill-rule="evenodd" clip-rule="evenodd" d="M23.0248 26.5706C22.8342 27.4231 21.5238 27.6164 20.9812 27.6587L14.0814 16.7299C13.7691 16.0866 13.8196 15.4115 14.1238 14.7734C14.2536 14.5034 14.5 14.3366 14.8016 14.3181C15.1008 14.2995 15.3684 14.4372 15.5271 14.6914L19.9325 21.6701L23.0248 26.5706Z" fill="#F6B096"/>
<path fill-rule="evenodd" clip-rule="evenodd" d="M21.3049 31.8569C21.125 32.6379 19.9201 32.8073 19.4198 32.847L11.5304 20.1735C11.2632 19.6176 11.3132 19.0695 11.5728 18.5453C11.7053 18.2779 11.954 18.1138 12.2532 18.0979C12.5525 18.082 12.817 18.2223 12.9734 18.4738L16.9391 24.8437L21.3049 31.8569Z" fill="#F6B096"/>
<path fill-rule="evenodd" clip-rule="evenodd" d="M34.2899 23.7341C32.4183 26.8582 32.1191 31.3774 29.4928 32.3146C27.8777 32.8918 26.1332 32.1478 25.601 30.6546C25.0661 29.1614 25.9453 27.4803 27.56 26.9031C28.3756 26.6119 29.2228 26.657 29.9322 26.9667L30.7794 25.6165C30.5968 24.3881 31.4517 22.5878 33.0988 22.1509C33.5274 22.0371 33.9591 22.1853 34.2263 22.5428C34.494 22.8975 34.5179 23.3529 34.2899 23.7341Z" fill="#F6B096"/>
<path fill-rule="evenodd" clip-rule="evenodd" d="M17.1082 28.9981C16.1736 25.972 19.4804 23.7587 21.4447 23.0571C22.7024 22.607 24.0872 22.5303 25.5325 22.6176C26.8776 22.5249 28.2224 23.3933 28.8023 24.8203C28.81 24.8362 28.8181 24.8521 28.8235 24.868L29.9961 28.1535C30.6951 30.1074 29.9326 32.183 28.3044 32.7654L22.5276 34.8304C20.8994 35.4129 18.9932 34.2903 18.297 32.3339L17.164 29.1596L17.124 29.0483C17.119 29.0325 17.1136 29.0166 17.1109 28.9981H17.1082Z" fill="#F6B096"/>
<path fill-rule="evenodd" clip-rule="evenodd" d="M19.9121 28.9433C22.8535 28.292 24.7015 30.68 25.1436 31.9217C24.7015 30.68 24.4712 27.8048 27.304 26.3037L19.9121 28.9433Z" fill="#DC977D"/>
<path fill-rule="evenodd" clip-rule="evenodd" d="M33.0593 30.7393C30.5943 31.2502 28.1717 31.8777 25.85 32.7646C23.5282 33.6541 21.307 34.8058 19.1309 36.074C19.3638 36.6802 19.5968 37.2892 19.8298 37.8954C20.0628 38.5017 20.2958 39.1106 20.5261 39.7169C22.7022 38.4487 24.9261 37.2971 27.2479 36.4102C29.5696 35.5206 31.9895 34.8932 34.4568 34.3822C34.2238 33.7759 33.9908 33.167 33.7606 32.5607C33.5276 31.9545 33.2946 31.3455 33.0616 30.7393H33.0593Z" fill="#D1E6E5"/>
<path fill-rule="evenodd" clip-rule="evenodd" d="M71.9115 43.892C76.5418 46.6216 92.1831 47.4396 91.1399 50.4685C89.6257 54.8713 47.4168 83.3528 40.7081 82.6354C33.9994 81.9202 22.1385 48.1068 19.3008 39.4681C23.9388 33.5668 30.0122 33.1221 34.5397 33.1221C39.5139 42.8303 41.1317 47.5217 45.9026 57.4657L64.5462 43.291C66.68 41.6681 69.6028 42.5286 71.9115 43.8894V43.892Z" fill="#FEFEFE"/>
<path fill-rule="evenodd" clip-rule="evenodd" d="M23.3833 40.0188C23.1846 39.4257 22.5415 39.1054 21.9484 39.304C21.3554 39.5025 21.035 40.1458 21.2337 40.7389C21.432 41.3319 22.0755 41.6523 22.6686 41.4537C23.2616 41.2551 23.582 40.6118 23.3833 40.0188ZM24.564 43.5426C24.3657 42.9495 23.7222 42.6292 23.1291 42.8278C22.5361 43.0263 22.2157 43.6696 22.4144 44.2627C22.6127 44.8557 23.2562 45.176 23.8493 44.9775C24.4423 44.7789 24.7627 44.1356 24.564 43.5426Z" fill="#999999"/>
<path fill-rule="evenodd" clip-rule="evenodd" d="M164.544 27.5307C165.108 28.3275 166.484 27.8827 167.038 27.6604L168.973 13.0171C168.989 12.485 168.857 11.9767 168.611 11.5266C168.386 11.1136 167.938 10.9018 167.475 10.9892C167.012 11.0765 166.673 11.434 166.612 11.8999L165.428 20.8617L164.547 27.5307H164.544Z" fill="#F6B096"/>
<path fill-rule="evenodd" clip-rule="evenodd" d="M167.559 25.8541C167.959 26.7039 169.384 26.6007 169.963 26.5186L174.607 13.5142C174.729 12.9979 174.675 12.4896 174.48 12.0157C174.308 11.5974 173.916 11.3432 173.466 11.3538C173.016 11.3644 172.637 11.6371 172.484 12.0634L169.656 19.9767L167.557 25.8541H167.559Z" fill="#F6B096"/>
<path fill-rule="evenodd" clip-rule="evenodd" d="M170.13 26.5706C170.321 27.4231 171.631 27.6164 172.174 27.6587L179.073 16.7299C179.386 16.0866 179.335 15.4115 179.031 14.7734C178.901 14.5034 178.652 14.3366 178.353 14.3181C178.054 14.2995 177.787 14.4372 177.628 14.6914L173.222 21.6701L170.13 26.5706Z" fill="#F6B096"/>
<path fill-rule="evenodd" clip-rule="evenodd" d="M171.849 31.8569C172.029 32.6379 173.233 32.8073 173.734 32.847L181.623 20.1735C181.891 19.6176 181.84 19.0695 181.581 18.5453C181.449 18.2779 181.2 18.1138 180.901 18.0979C180.601 18.082 180.336 18.2223 180.181 18.4738L176.214 24.8437L171.849 31.8569Z" fill="#F6B096"/>
<path fill-rule="evenodd" clip-rule="evenodd" d="M158.864 23.7341C160.735 26.8582 161.034 31.3774 163.661 32.3146C165.276 32.8918 167.02 32.1478 167.552 30.6546C168.087 29.1614 167.208 27.4803 165.593 26.9031C164.778 26.6119 163.931 26.657 163.221 26.9667L162.374 25.6165C162.557 24.3881 161.702 22.5878 160.055 22.1509C159.626 22.0371 159.194 22.1853 158.927 22.5428C158.659 22.8975 158.636 23.3529 158.864 23.7341Z" fill="#F6B096"/>
<path fill-rule="evenodd" clip-rule="evenodd" d="M176.048 28.9981C176.982 25.972 173.676 23.7587 171.711 23.0571C170.454 22.607 169.069 22.5303 167.624 22.6176C166.279 22.5249 164.934 23.3933 164.354 24.8203C164.346 24.8362 164.338 24.8521 164.333 24.868L163.16 28.1535C162.461 30.1074 163.223 32.183 164.852 32.7654L170.629 34.8304C172.257 35.4129 174.163 34.2903 174.859 32.3339L175.992 29.1596L176.032 29.0483C176.037 29.0325 176.043 29.0166 176.046 28.9981H176.048Z" fill="#F6B096"/>
<path fill-rule="evenodd" clip-rule="evenodd" d="M173.244 28.9433C170.303 28.292 168.455 30.68 168.013 31.9217C168.458 30.68 168.685 27.8048 165.853 26.3037L173.244 28.9433Z" fill="#DC977D"/>
<path fill-rule="evenodd" clip-rule="evenodd" d="M160.094 30.7393C162.559 31.2502 164.981 31.8777 167.303 32.7646C169.625 33.6541 171.846 34.8058 174.022 36.074C173.789 36.6802 173.556 37.2892 173.323 37.8954C173.09 38.5017 172.857 39.1106 172.627 39.7169C170.451 38.4487 168.227 37.2971 165.905 36.4102C163.584 35.5206 161.164 34.8932 158.696 34.3822C158.929 33.7759 159.162 33.167 159.393 32.5607C159.626 31.9545 159.858 31.3455 160.091 30.7393H160.094Z" fill="#D1E6E5"/>
<path fill-rule="evenodd" clip-rule="evenodd" d="M121.242 43.892C116.612 46.6216 100.97 47.4396 102.014 50.4685C103.528 54.8713 145.737 83.3528 152.445 82.6354C159.154 81.9202 171.015 48.1068 173.853 39.4681C169.214 33.5668 163.141 33.1221 158.614 33.1221C153.639 42.8303 152.022 47.5217 147.251 57.4657L128.607 43.291C126.474 41.6681 123.551 42.5286 121.242 43.8894V43.892Z" fill="#FEFEFE"/>
<path fill-rule="evenodd" clip-rule="evenodd" d="M169.771 40.0188C169.97 39.4257 170.613 39.1054 171.206 39.304C171.799 39.5025 172.119 40.1458 171.921 40.7389C171.722 41.3319 171.079 41.6523 170.486 41.4537C169.893 41.2551 169.572 40.6118 169.771 40.0188ZM168.59 43.5426C168.789 42.9495 169.432 42.6292 170.025 42.8278C170.618 43.0263 170.938 43.6696 170.74 44.2627C170.541 44.8557 169.898 45.176 169.305 44.9775C168.712 44.7789 168.391 44.1356 168.59 43.5426Z" fill="#999999"/>
<path d="M121.052 73.5273H121.049C120.742 73.5273 120.493 73.7761 120.493 74.0834V74.1839C120.493 74.4908 120.742 74.74 121.049 74.74H121.052C121.359 74.74 121.608 74.4908 121.608 74.1839V74.0834C121.608 73.7761 121.359 73.5273 121.052 73.5273Z" fill="#1A847C"/>
<path d="M121.84 74.2773H120.257V80.3403H121.84V74.2773Z" fill="#333333"/>
<path fill-rule="evenodd" clip-rule="evenodd" d="M121.856 76.6963H108.412V93.9893H122.137V76.6963H121.856ZM108.971 77.4029H121.573V93.2826H108.971V77.4029Z" fill="#E6E6E6"/>
<path d="M122.696 76.6963H107.849V81.3109H122.696V76.6963Z" fill="#E6E6E6"/>
<path d="M121.254 75.7188H120.846V80.8336H121.254V75.7188Z" fill="#1A1A1A"/>
<path fill-rule="evenodd" clip-rule="evenodd" d="M70.3894 78.8033L71.3556 79.0494C72.9815 79.4653 74.6281 79.1791 75.9702 78.3824C77.3153 77.5856 78.3558 76.2802 78.7714 74.6547L82.4725 60.1941L81.3846 59.916L77.6831 74.3767C77.3442 75.7006 76.4947 76.7673 75.396 77.4162C74.2996 78.0674 72.9549 78.3004 71.631 77.9615L70.6648 77.715L70.3867 78.8033H70.3894Z" fill="#808080"/>
<path fill-rule="evenodd" clip-rule="evenodd" d="M71.2282 77.4315L70.4368 77.2304C69.915 77.098 69.3805 77.413 69.248 77.9344C69.1155 78.4562 69.4306 78.9911 69.9524 79.1232L70.7437 79.3246C71.2655 79.4571 71.8 79.1417 71.9325 78.6202C72.065 78.0988 71.75 77.5639 71.2282 77.4315Z" fill="#1A847C"/>
<path fill-rule="evenodd" clip-rule="evenodd" d="M82.1466 78.8033L81.1804 79.0494C79.5549 79.4653 77.9082 79.1791 76.5658 78.3824C75.221 77.5856 74.1805 76.2802 73.7646 74.6547L70.0635 60.1941L71.1517 59.916L74.8529 74.3767C75.1918 75.7006 76.0417 76.7673 77.1403 77.4162C78.2363 78.0674 79.5814 78.3004 80.905 77.9615L81.8712 77.715L82.1492 78.8033H82.1466Z" fill="#B3B3B3"/>
<path fill-rule="evenodd" clip-rule="evenodd" d="M81.3047 77.4315L82.0965 77.2304C82.6179 77.098 83.1528 77.413 83.2853 77.9344C83.4174 78.4562 83.1024 78.9911 82.5809 79.1232L81.7892 79.3246C81.2678 79.4571 80.7329 79.1417 80.6004 78.6202C80.4683 78.0988 80.7833 77.5639 81.3047 77.4315Z" fill="#1A847C"/>
<path fill-rule="evenodd" clip-rule="evenodd" d="M71.4883 59.7813C71.4883 60.2472 71.1125 60.6235 70.6465 60.6235C70.1805 60.6235 69.8047 60.2472 69.8047 59.7813C69.8047 57.9918 70.5298 56.3717 71.7028 55.196C72.8754 54.0234 74.4959 53.2979 76.2881 53.2979C78.0803 53.2979 79.6981 54.0234 80.8738 55.196C82.0464 56.369 82.7719 57.9891 82.7719 59.7813C82.7719 60.2472 82.3961 60.6235 81.9301 60.6235C81.4642 60.6235 81.0879 60.2472 81.0879 59.7813C81.0879 58.455 80.5507 57.2558 79.6823 56.3875C78.8139 55.5191 77.6148 54.9815 76.2881 54.9815C74.9619 54.9815 73.7627 55.5191 72.8943 56.3875C72.0259 57.2558 71.4883 58.455 71.4883 59.7813Z" fill="#1A847C"/>
<path d="M77.1289 52.1455C77.1289 51.6807 76.7523 51.3037 76.2871 51.3037C75.8223 51.3037 75.4453 51.6807 75.4453 52.1455V53.6786C75.4453 54.1434 75.8223 54.5204 76.2871 54.5204C76.7523 54.5204 77.1289 54.1434 77.1289 53.6786V52.1455Z" fill="#1A847C"/>
<path fill-rule="evenodd" clip-rule="evenodd" d="M75.7154 52.093C75.7154 52.0664 74.6036 42.398 95.4868 42.4721V43.5893C75.8424 43.5179 76.8248 51.9659 76.8275 51.9898L75.7131 52.0903L75.7154 52.093Z" fill="#1A847C"/>
<path fill-rule="evenodd" clip-rule="evenodd" d="M116.138 64.1826C117.316 64.1826 118.272 65.1384 118.272 66.3164C118.272 67.4944 117.316 68.4502 116.138 68.4502C114.96 68.4502 114.004 67.4944 114.004 66.3164C114.004 65.1384 114.96 64.1826 116.138 64.1826Z" fill="#CCCCCC"/>
<path fill-rule="evenodd" clip-rule="evenodd" d="M115.889 64.1826C117.067 64.1826 118.022 65.1384 118.022 66.3164C118.022 67.4944 117.067 68.4502 115.889 68.4502C114.711 68.4502 113.755 67.4944 113.755 66.3164C113.755 65.1384 114.711 64.1826 115.889 64.1826Z" fill="#E6E6E6"/>
<path fill-rule="evenodd" clip-rule="evenodd" d="M115.928 64.9277C116.694 64.9277 117.313 65.5473 117.313 66.3125C117.313 67.0777 116.694 67.6969 115.928 67.6969C115.163 67.6969 114.544 67.0777 114.544 66.3125C114.544 65.5473 115.163 64.9277 115.928 64.9277Z" fill="#999999"/>
<path fill-rule="evenodd" clip-rule="evenodd" d="M96.2654 43.4379C95.9558 43.4379 95.707 43.1864 95.707 42.8793C95.707 42.5722 95.9585 42.3207 96.2654 42.3207C100.978 42.3048 104.555 42.7761 107.271 43.5147C110.776 44.4678 112.884 45.871 114.146 47.2503C116.217 49.5058 116.145 51.918 116.069 54.5416C116.055 54.9941 116.042 55.4547 116.042 56.0189V64.8271C116.042 65.1367 115.791 65.3882 115.481 65.3882C115.171 65.3882 114.92 65.1367 114.92 64.8271V56.0189C114.92 55.5741 114.936 55.0365 114.951 54.5097C115.02 52.1244 115.086 49.9294 113.323 48.0075C112.179 46.7605 110.244 45.4844 106.977 44.5949C104.34 43.8774 100.859 43.4194 96.2654 43.4353V43.4379Z" fill="#1A847C"/>
<path fill-rule="evenodd" clip-rule="evenodd" d="M115.15 64.9277C115.916 64.9277 116.535 65.5473 116.535 66.3125C116.535 67.0777 115.916 67.6969 115.15 67.6969C114.385 67.6969 113.766 67.0777 113.766 66.3125C113.766 65.5473 114.385 64.9277 115.15 64.9277Z" fill="#CCCCCC"/>
<path d="M98.4444 100.848H94.709V101.748H98.4444V100.848Z" fill="#E6E6E6"/>
<path fill-rule="evenodd" clip-rule="evenodd" d="M96.5757 100.014C97.2877 100.014 97.8623 100.591 97.8623 101.301C97.8623 102.01 97.285 102.587 96.5757 102.587C95.8659 102.587 95.2891 102.01 95.2891 101.301C95.2891 100.591 95.8659 100.014 96.5757 100.014Z" fill="#999999"/>
<path fill-rule="evenodd" clip-rule="evenodd" d="M96.5757 119.431C97.2877 119.431 97.8623 120.008 97.8623 120.717C97.8623 121.427 97.285 122.004 96.5757 122.004C95.8659 122.004 95.2891 121.427 95.2891 120.717C95.2891 120.008 95.8659 119.431 96.5757 119.431Z" fill="#999999"/>
<path fill-rule="evenodd" clip-rule="evenodd" d="M113.624 38.1338C115.459 38.1338 116.947 39.7461 116.947 41.737C116.947 43.7279 115.459 45.3402 113.624 45.3402C111.79 45.3402 110.302 43.7279 110.302 41.737C110.302 39.7461 111.79 38.1338 113.624 38.1338Z" fill="#F6B096"/>
<path fill-rule="evenodd" clip-rule="evenodd" d="M113.625 39.8564C114.583 39.8564 115.359 40.6983 115.359 41.7388C115.359 42.7793 114.583 43.6212 113.625 43.6212C112.666 43.6212 111.891 42.7793 111.891 41.7388C111.891 40.6983 112.666 39.8564 113.625 39.8564Z" fill="#DC977D"/>
<path fill-rule="evenodd" clip-rule="evenodd" d="M79.5316 38.1338C81.3661 38.1338 82.8542 39.7461 82.8542 41.737C82.8542 43.7279 81.3661 45.3402 79.5316 45.3402C77.697 45.3402 76.209 43.7279 76.209 41.737C76.209 39.7461 77.697 38.1338 79.5316 38.1338Z" fill="#F6B096"/>
<path fill-rule="evenodd" clip-rule="evenodd" d="M79.5309 39.8564C80.4894 39.8564 81.265 40.6983 81.265 41.7388C81.265 42.7793 80.4894 43.6212 79.5309 43.6212C78.5724 43.6212 77.7969 42.7793 77.7969 41.7388C77.7969 40.6983 78.5724 39.8564 79.5309 39.8564Z" fill="#DC977D"/>
<path fill-rule="evenodd" clip-rule="evenodd" d="M91.3073 57.4533C86.9334 53.1961 80.4287 50.3846 80.4287 50.3846V35.9821C80.4287 35.9821 80.0102 17.3889 96.2049 19.1521C112.4 17.3889 112.818 35.9821 112.818 35.9821V50.3846C112.818 50.3846 106.072 53.9374 101.987 57.4664C100.322 56.9793 98.5031 56.712 96.6231 56.712C94.7434 56.712 92.9593 56.9739 91.3073 57.4533Z" fill="#F6B096"/>
<path fill-rule="evenodd" clip-rule="evenodd" d="M91.3064 57.4533C90.1757 56.352 88.9022 55.3488 87.6368 54.4643C87.6129 54.1573 87.6025 53.8473 87.6025 53.535C87.6025 47.7001 91.6399 42.9717 96.6226 42.9717C101.605 42.9717 105.642 47.7027 105.642 53.535C105.642 53.9455 105.621 54.3506 105.581 54.7477C104.313 55.6134 103.058 56.5399 101.986 57.4668C100.321 56.9797 98.5022 56.712 96.6226 56.712C94.7426 56.712 92.9584 56.9743 91.3064 57.4533Z" fill="#E6E6E6"/>
<path fill-rule="evenodd" clip-rule="evenodd" d="M109.601 24.0124C109.601 24.0124 107.584 27.8963 108.016 31.203C108.447 34.5097 111.823 38.5736 110.999 42.6718C110.176 46.7702 109.541 47.4532 109.541 47.4532L113.372 44.2895C113.372 44.2895 115.241 30.6152 109.599 24.0098L109.601 24.0124Z" fill="#E6E6E6"/>
<path fill-rule="evenodd" clip-rule="evenodd" d="M83.1314 24.0124C83.1314 24.0124 85.1485 27.8963 84.7172 31.203C84.2855 34.5097 80.9102 38.5736 81.7335 42.6718C82.5569 46.7702 83.1923 47.4532 83.1923 47.4532L79.3614 44.2895C79.3614 44.2895 77.4921 30.6152 83.1341 24.0098L83.1314 24.0124Z" fill="#E6E6E6"/>
<path fill-rule="evenodd" clip-rule="evenodd" d="M99.3764 41.6367C99.0087 42.4522 97.0574 43.2543 96.4616 43.482C95.8659 43.2543 93.9146 42.4522 93.5469 41.6367C94.4045 41.8644 95.3999 41.9968 96.4616 41.9968C97.5233 41.9968 98.5188 41.867 99.3764 41.6367Z" fill="#DC977D"/>
<path fill-rule="evenodd" clip-rule="evenodd" d="M99.6988 32.5557C99.6988 32.5557 95.8837 37.3105 99.3757 41.6365L98.7881 41.9701C96.6173 38.6422 97.3586 35.4546 99.6988 32.5557Z" fill="#DC977D"/>
<path fill-rule="evenodd" clip-rule="evenodd" d="M90.4222 28.8305C91.447 28.2348 92.6754 28.3063 93.6046 28.9126L88.9161 31.6368C88.8526 30.5302 89.3979 29.4262 90.4222 28.8331V28.8305Z" fill="#E6E6E6"/>
<path fill-rule="evenodd" clip-rule="evenodd" d="M104.184 28.8305C103.16 28.2348 101.931 28.3063 101.002 28.9126L105.691 31.6368C105.754 30.5302 105.209 29.4262 104.184 28.8331V28.8305Z" fill="#E6E6E6"/>
<path fill-rule="evenodd" clip-rule="evenodd" d="M91.4497 32.9756C92.8741 32.9756 94.0283 34.4105 94.0283 36.1817C94.0283 37.9529 92.8741 39.3878 91.4497 39.3878C90.0252 39.3878 88.8711 37.9529 88.8711 36.1817C88.8711 34.4105 90.0252 32.9756 91.4497 32.9756Z" fill="white"/>
<path fill-rule="evenodd" clip-rule="evenodd" d="M90.7853 33.4619C90.1076 33.4619 89.5596 34.0099 89.5596 34.6877C89.5596 35.3654 90.1076 35.9135 90.7853 35.9135C91.4631 35.9135 92.0111 35.3654 92.0111 34.6877C92.0111 34.0099 91.4631 33.4619 90.7853 33.4619Z" fill="#00CCFF"/>
<path fill-rule="evenodd" clip-rule="evenodd" d="M91.5771 33.3594C91.2833 33.3594 91.0449 33.5977 91.0449 33.8915C91.0449 34.1854 91.2833 34.4237 91.5771 34.4237C91.8709 34.4237 92.1089 34.1854 92.1089 33.8915C92.1089 33.5977 91.8709 33.3594 91.5771 33.3594Z" fill="white"/>
<path fill-rule="evenodd" clip-rule="evenodd" d="M90.4495 35.0459C90.2642 35.0459 90.1133 35.1968 90.1133 35.3822C90.1133 35.5675 90.2642 35.7184 90.4495 35.7184C90.6347 35.7184 90.7857 35.5675 90.7857 35.3822C90.7857 35.1968 90.6347 35.0459 90.4495 35.0459Z" fill="white"/>
<path fill-rule="evenodd" clip-rule="evenodd" d="M90.7849 33.9707C90.4145 33.9707 90.1152 34.2698 90.1152 34.6405C90.1152 35.0111 90.4145 35.3103 90.7849 35.3103C91.1558 35.3103 91.4546 35.0111 91.4546 34.6405C91.4546 34.2698 91.1558 33.9707 90.7849 33.9707Z" fill="black"/>
<path fill-rule="evenodd" clip-rule="evenodd" d="M102.255 32.9756C103.679 32.9756 104.833 34.4105 104.833 36.1817C104.833 37.9529 103.679 39.3878 102.255 39.3878C100.83 39.3878 99.6758 37.9529 99.6758 36.1817C99.6758 34.4105 100.83 32.9756 102.255 32.9756Z" fill="white"/>
<path fill-rule="evenodd" clip-rule="evenodd" d="M101.547 33.4619C100.869 33.4619 100.321 34.0099 100.321 34.6877C100.321 35.3654 100.869 35.9135 101.547 35.9135C102.225 35.9135 102.773 35.3654 102.773 34.6877C102.773 34.0099 102.225 33.4619 101.547 33.4619Z" fill="#00CCFF"/>
<path fill-rule="evenodd" clip-rule="evenodd" d="M102.339 33.3594C102.046 33.3594 101.808 33.5977 101.808 33.8915C101.808 34.1854 102.046 34.4237 102.339 34.4237C102.634 34.4237 102.872 34.1854 102.872 33.8915C102.872 33.5977 102.634 33.3594 102.339 33.3594Z" fill="white"/>
<path fill-rule="evenodd" clip-rule="evenodd" d="M101.211 35.0459C101.026 35.0459 100.875 35.1968 100.875 35.3822C100.875 35.5675 101.026 35.7184 101.211 35.7184C101.396 35.7184 101.547 35.5675 101.547 35.3822C101.547 35.1968 101.396 35.0459 101.211 35.0459Z" fill="white"/>
<path fill-rule="evenodd" clip-rule="evenodd" d="M101.547 33.9707C101.176 33.9707 100.877 34.2698 100.877 34.6405C100.877 35.0111 101.176 35.3103 101.547 35.3103C101.917 35.3103 102.217 35.0111 102.217 34.6405C102.217 34.2698 101.917 33.9707 101.547 33.9707Z" fill="black"/>
<path fill-rule="evenodd" clip-rule="evenodd" d="M98.8733 36.1014C98.799 36.3105 98.7409 36.5223 98.7012 36.742C98.6642 36.9538 98.6458 37.171 98.6431 37.3933C98.6111 37.3669 98.5768 37.3404 98.5452 37.3166C98.1505 37.028 97.6688 36.8638 97.1604 36.8638C96.7395 36.8638 96.3344 36.9777 95.9798 37.1815C95.8896 37.2345 95.8049 37.2927 95.7229 37.3563C95.7202 37.1471 95.7017 36.9433 95.6647 36.7447C95.6274 36.525 95.5692 36.3105 95.4926 36.104L95.4237 35.9187H88.3842L88.3152 36.104C88.2382 36.3132 88.1828 36.525 88.1431 36.7447C88.1061 36.9618 88.085 37.1815 88.085 37.4066C88.085 38.4603 88.5113 39.416 89.2021 40.107C89.893 40.798 90.8461 41.2242 91.9024 41.2242C92.9587 41.2242 93.9118 40.798 94.603 40.107C95.0875 39.6252 95.4395 39.0109 95.6089 38.3252C95.768 38.0499 95.9929 37.8249 96.2601 37.6713C96.5277 37.5151 96.8374 37.4304 97.1578 37.4304C97.5471 37.4304 97.9148 37.5548 98.2114 37.7719C98.4763 37.9652 98.6908 38.2326 98.8152 38.5503C99.0004 39.1433 99.3285 39.6755 99.7575 40.1044C100.449 40.7953 101.402 41.2216 102.458 41.2216C103.514 41.2216 104.468 40.7953 105.158 40.1044C105.849 39.4134 106.276 38.4602 106.276 37.4039C106.276 37.1789 106.254 36.9565 106.217 36.742C106.18 36.5223 106.122 36.3078 106.045 36.1014L105.976 35.916H98.9369L98.868 36.1014H98.8733ZM99.3975 38.5C99.3871 38.4682 99.3763 38.4391 99.3659 38.4073C99.2627 38.0923 99.2095 37.756 99.2095 37.4066C99.2095 37.2133 99.2253 37.0227 99.2573 36.84C99.2785 36.7182 99.3073 36.5964 99.342 36.4799H105.582C105.616 36.5964 105.646 36.7156 105.667 36.84C105.698 37.0227 105.715 37.2107 105.715 37.4066C105.715 38.3041 105.349 39.1168 104.761 39.7072C104.174 40.295 103.361 40.6603 102.46 40.6603C101.561 40.6603 100.75 40.295 100.16 39.7072C99.8238 39.371 99.5592 38.9606 99.3948 38.5H99.3975ZM88.6992 36.84C88.7204 36.7182 88.7492 36.5964 88.7839 36.4799H95.0239C95.0582 36.5964 95.0875 36.7156 95.1087 36.84C95.1402 37.0227 95.1564 37.2107 95.1564 37.4066C95.1564 38.3041 94.791 39.1168 94.2033 39.7072C93.6153 40.295 92.8027 40.6603 91.9024 40.6603C91.0024 40.6603 90.1922 40.295 89.6018 39.7072C89.0142 39.1195 88.6487 38.3067 88.6487 37.4066C88.6487 37.2133 88.6645 37.0227 88.6965 36.84H88.6992Z" fill="black"/>
<path fill-rule="evenodd" clip-rule="evenodd" d="M99.4526 51.709C97.5544 52.4476 96.9587 54.4277 96.9587 55.2646C96.9587 54.4277 96.482 52.7838 94.4648 53.0222L99.4499 51.709H99.4526Z" fill="#CCCCCC"/>
<path fill-rule="evenodd" clip-rule="evenodd" d="M90.3005 49.7713C90.3005 48.233 93.218 46.9834 96.8132 46.9834C100.123 46.9834 102.095 47.8677 103.284 49.4535C100.71 46.9834 95.2116 47.6082 93.0724 49.1729C90.9333 50.7375 90.2979 49.7713 90.2979 49.7713H90.3005Z" fill="white"/>
<path fill-rule="evenodd" clip-rule="evenodd" d="M103.178 49.3094C103.215 49.3544 103.249 49.4021 103.286 49.4471C100.713 46.977 95.2139 47.6018 93.0747 49.1665C91.4334 50.3683 90.6763 50.0771 90.4141 49.8788C92.4578 47.7977 99.3043 45.9021 103.178 49.3094Z" fill="#A80403"/>
<path fill-rule="evenodd" clip-rule="evenodd" d="M94.0426 49.8438C94.0426 49.8438 89.8331 52.0014 89.3487 50.2754C88.6948 51.1357 90.7254 52.5814 94.0426 49.8438Z" fill="#CCCCCC"/>
</g>
</svg>
