<svg width="86" height="80" viewBox="0 0 86 80" fill="none" xmlns="http://www.w3.org/2000/svg">
    <path d="M84.7587 37.8381C89.2466 60.7248 74.8996 72.4325 44.0292 72.4325C19.5458 72.4325 0.43457 63.2525 0.43457 42.1626C0.43457 27.5769 11.2454 -4.3257 45.8399 6.48761C60.387 11.0347 55.5696 17.2975 67.4614 19.4598C71.7857 20.2461 81.8769 23.1425 84.7587 37.8381Z" fill="#E95D53" fill-opacity="0.2"/>
    <path d="M29.401 11.7919L29.411 11.8015L29.4214 11.8105L30.7849 12.9962L31.1751 13.3354L31.55 12.9796L31.55 12.9795L31.55 12.9795L31.5502 12.9793L31.5514 12.9782L31.5568 12.9731L31.5794 12.9519C31.5995 12.933 31.6297 12.9048 31.6692 12.8682C31.7483 12.7951 31.8646 12.6885 32.0121 12.5562C32.3072 12.2914 32.7263 11.9242 33.2211 11.516C34.2167 10.6946 35.4951 9.7265 36.6768 9.08397C39.0593 7.78861 41.7528 7.05529 44.4975 7.05529C53.2997 7.05529 60.232 14.1444 60.232 23.2078C60.232 29.4411 56.9896 35.0538 51.6362 41.0319C47.763 45.3571 42.8415 49.8149 37.3393 54.7988C35.3482 56.6023 33.281 58.4746 31.16 60.4346C28.8885 58.3166 26.7087 56.3207 24.6357 54.4226C18.9364 49.2045 14.0438 44.7248 10.2707 40.4751C5.05833 34.6043 2.08459 29.2789 2.08459 23.2078C2.08459 14.1444 9.01687 7.05529 17.8191 7.05529C22.14 7.05529 26.329 8.84722 29.401 11.7919Z" fill="#E95D53" stroke="#E43124" stroke-width="1.13793"/>
    <path d="M3.7959 33.2169L12.6741 33.2167L15.391 28.3305L18.1078 36.1484L22.1831 31.2622L24.8999 41.0345L30.3336 20.5127L35.7188 36.1484L41.1524 31.2622L44.0876 33.2167L65.3614 33.4108" stroke="white" stroke-width="1.13793" stroke-linecap="round" stroke-linejoin="round"/>
    <circle cx="59.0383" cy="59.0861" r="20.589" fill="#F9F9F9" stroke="#1A847C" stroke-width="0.648621"/>
    <path d="M42.3975 60.8486C42.3362 60.2686 42.3076 59.6824 42.3076 59.0861C42.3076 49.8467 49.7988 42.3555 59.0382 42.3555C68.2777 42.3555 75.7688 49.8467 75.7688 59.0861C75.7688 59.952 75.7035 60.8016 75.5769 61.6328C75.1807 64.2286 74.1799 66.6324 72.734 68.6911L67.6037 65.0844C68.7964 63.3872 69.4949 61.3183 69.4949 59.0861C69.4949 53.3104 64.8139 48.6295 59.0382 48.6295C53.2626 48.6295 48.5816 53.3104 48.5816 59.0861C48.5816 61.5307 49.4189 63.7793 50.8241 65.5602L45.9143 69.4365C43.9905 67.0021 42.7855 64.0795 42.4261 60.9977C42.4179 60.9425 42.4097 60.8935 42.3975 60.8486Z" fill="#1A847C"/>
    <path fill-rule="evenodd" clip-rule="evenodd" d="M42.3076 59.1112C42.3084 59.6989 42.3371 60.2766 42.3975 60.8485C42.3994 60.8556 42.4013 60.8628 42.403 60.8702C42.3404 60.2859 42.3085 59.6988 42.3076 59.1112ZM42.3077 59.0251C42.3076 59.0538 42.3076 59.0825 42.3076 59.1112C42.3076 59.1028 42.3076 59.0944 42.3076 59.0859C42.3076 59.0656 42.3077 59.0454 42.3077 59.0251Z" fill="#FFCC29" fill-opacity="0.98"/>
    <path fill-rule="evenodd" clip-rule="evenodd" d="M42.3076 59.1112C42.3084 59.6989 42.3371 60.2766 42.3975 60.8485C42.3994 60.8556 42.4013 60.8628 42.403 60.8702C42.3404 60.2859 42.3085 59.6988 42.3076 59.1112ZM42.3077 59.0251C42.3076 59.0538 42.3076 59.0825 42.3076 59.1112C42.3076 59.1028 42.3076 59.0944 42.3076 59.0859C42.3076 59.0656 42.3077 59.0454 42.3077 59.0251Z" fill="#FFCC29" fill-opacity="0.98"/>
    <path fill-rule="evenodd" clip-rule="evenodd" d="M70.8685 47.2568L70.5429 47.5825L66.4326 51.6927C68.3243 53.5849 69.4942 56.1987 69.4942 59.086C69.4942 61.3183 68.7957 63.3871 67.603 65.0843L72.7333 68.691C74.1792 66.6324 75.18 64.2286 75.5762 61.6328C75.7028 60.8016 75.7682 59.952 75.7682 59.086C75.7682 54.4668 73.8957 50.2845 70.8685 47.2568Z" fill="#E95D53"/>
    <path fill-rule="evenodd" clip-rule="evenodd" d="M59.0365 63.2686C61.3465 63.2686 63.2191 61.396 63.2191 59.086C63.2191 56.776 61.3465 54.9033 59.0365 54.9033C57.668 54.9033 56.453 55.5605 55.69 56.5765L46.4902 59.0855L55.6891 61.5943C56.4521 62.6109 57.6675 63.2686 59.0365 63.2686Z" fill="#272A3D"/>
    <path d="M79.9715 4.63319C79.9715 7.41311 77.1915 15.7529 77.1915 15.7529H73.485C73.485 15.7529 70.7051 7.41311 70.7051 4.63319C70.7051 2.07567 72.7807 0 75.3383 0C77.8958 0 79.9715 2.07567 79.9715 4.63319ZM75.3383 18.5328C73.2997 18.5328 71.6317 20.2007 71.6317 22.2393C71.6317 24.2779 73.2997 25.9459 75.3383 25.9459C77.3769 25.9459 79.0448 24.2779 79.0448 22.2393C79.0448 20.2007 77.3769 18.5328 75.3383 18.5328Z" fill="#E95D53"/>
</svg>
