<svg width="64" height="64" viewBox="0 0 64 64" fill="none" xmlns="http://www.w3.org/2000/svg">
<circle cx="32" cy="32" r="32" fill="#1A847C"/>
<path fill-rule="evenodd" clip-rule="evenodd" d="M26.2736 29.414C22.3352 30.1559 19.6933 31.5965 18.6268 35.3536C17.4999 39.3239 18.5669 44.0731 19.7355 47.4702C21.6826 53.1319 27.6796 61.706 34.9309 57.5772C42.056 53.5203 48.6564 34.2564 38.3044 30.1215C35.3063 28.9238 29.6912 28.7703 26.2736 29.414Z" fill="white"/>
<path fill-rule="evenodd" clip-rule="evenodd" d="M25.9866 5.33887H35.8314C41.8569 5.33887 46.7869 10.2686 46.7869 16.2943C46.7869 22.3198 41.8569 27.2496 35.8314 27.2496H25.9866C19.9614 27.2496 15.0312 22.3198 15.0312 16.2943C15.0312 10.2686 19.9614 5.33887 25.9866 5.33887Z" fill="white"/>
<path fill-rule="evenodd" clip-rule="evenodd" d="M35.8293 9.61426H25.9843C22.5532 9.61426 19.7461 12.4215 19.7461 15.8524V16.7333C19.7461 20.1642 22.5532 22.9715 25.9843 22.9715H32.6669L35.6843 25.6934V22.9715H35.8293C39.2605 22.9715 42.0675 20.1642 42.0675 16.7333V15.8524C42.0675 12.4215 39.2605 9.61426 35.8293 9.61426Z" fill="#232828"/>
<path d="M31.7668 47.4262H30.0494C29.149 47.4262 28.4192 46.6956 28.4192 45.7953V43.5617H26.2025C25.3018 43.5617 24.5723 42.8315 24.5723 41.9313V40.1916C24.5723 39.2914 25.3018 38.5618 26.2025 38.5618H28.4192V36.3282C28.4192 35.4268 29.149 34.6973 30.0494 34.6973H31.7668C32.6668 34.6973 33.3975 35.4268 33.3975 36.3282V38.5618H35.613C36.5133 38.5618 37.2439 39.2914 37.2439 40.1916V41.9313C37.2439 42.8315 36.5133 43.5617 35.613 43.5617H33.3975V45.7953C33.3975 46.6956 32.6668 47.4262 31.7668 47.4262Z" fill="#1A837C"/>
<path fill-rule="evenodd" clip-rule="evenodd" d="M35.3432 13.5889C36.1275 13.5889 36.7628 14.2244 36.7628 15.0084C36.7628 15.7926 36.1275 16.428 35.3432 16.428C34.5594 16.428 33.9238 15.7926 33.9238 15.0084C33.9238 14.2244 34.5594 13.5889 35.3432 13.5889Z" fill="white"/>
<path fill-rule="evenodd" clip-rule="evenodd" d="M26.4703 13.5889C27.2545 13.5889 27.8898 14.2244 27.8898 15.0084C27.8898 15.7926 27.2545 16.428 26.4703 16.428C25.6863 16.428 25.0508 15.7926 25.0508 15.0084C25.0508 14.2244 25.6863 13.5889 26.4703 13.5889Z" fill="white"/>
<path fill-rule="evenodd" clip-rule="evenodd" d="M43.625 32.9101C48.3722 33.7556 53.9461 29.9509 53.9433 25.4671C53.9414 22.2622 55.2189 18.7879 52.4876 20.8776C51.3588 21.7412 51.4933 21.8517 50.9148 23.1531L47.9936 29.7243C47.1841 31.545 45.5281 32.5707 43.625 32.9101Z" fill="white"/>
<path fill-rule="evenodd" clip-rule="evenodd" d="M18.3678 32.8018C13.9085 34.6363 11.2474 40.8382 13.6563 44.6199C15.3781 47.3231 16.1648 50.9402 17.3479 47.7111C17.8367 46.3765 17.664 46.3555 17.4536 44.9469L16.3916 37.8346C16.0974 35.8639 16.9443 34.1096 18.3678 32.8018Z" fill="white"/>
<path d="M32.9035 18.2376C32.4056 18.7961 31.489 19.1395 30.4975 19.1395C29.4965 19.1395 28.5726 18.7892 28.0781 18.2227" stroke="white" stroke-width="0.666709" stroke-miterlimit="22.9256"/>
<path fill-rule="evenodd" clip-rule="evenodd" d="M52.6044 20.6687C52.6044 21.5359 52.611 22.3486 52.5208 23.0426C52.4093 23.9032 52.3724 24.5554 52.3744 25.4704C52.3776 27.0593 51.7381 28.2853 51.0828 29.211C49.8848 30.9032 47.8206 32.2655 45.8419 32.7468C45.4881 32.8327 45.1869 32.8603 44.8809 33.0729C49.001 33.0729 53.2498 30.1901 53.9123 26.3062C54.0392 25.5618 53.9382 24.6931 54.0577 23.8772C54.1322 23.3688 54.2082 22.8123 54.2428 22.2494V21.1105C54.2225 20.8391 54.1853 20.5731 54.1257 20.3177C52.9821 20.0438 53.518 20.4248 52.6044 20.6687Z" fill="#F4FAFA"/>
<path fill-rule="evenodd" clip-rule="evenodd" d="M12.6992 41.2624C12.6992 43.1802 13.4156 44.2988 14.1533 45.5423C14.5307 46.1784 14.782 46.7131 15.1176 47.3865C15.378 47.9089 15.7935 48.9858 16.444 48.9858C16.8242 48.9858 17.2631 48.2628 17.2631 47.9326C17.2631 47.6231 17.1922 47.7478 17.0639 47.5467C16.1905 46.1787 16.1543 45.8054 15.4283 44.5014C14.5742 42.9675 14.2595 42.8776 14.0527 40.6098C13.8801 38.7172 14.8592 36.3539 15.9911 34.8416C16.4055 34.2881 16.9321 33.9161 17.2631 33.4219C15.4365 33.9096 12.6992 38.0117 12.6992 41.2624Z" fill="#F4FAFA"/>
</svg>
