<svg width="24" height="24" viewBox="0 0 24 24" fill="none" xmlns="http://www.w3.org/2000/svg">
    <g clip-path="url(#clip0_8810_34988)">
        <path d="M12 24C18.6274 24 24 18.6274 24 12C24 5.37258 18.6274 0 12 0C5.37258 0 0 5.37258 0 12C0 18.6274 5.37258 24 12 24Z" fill="#D3E5E5"/>
        <path fill-rule="evenodd" clip-rule="evenodd" d="M9.52166 3.08008H14.4787C17.5128 3.08008 19.9951 5.56236 19.9951 8.59637C19.9951 11.6304 17.5128 14.1126 14.4787 14.1126H9.52166C6.4878 14.1126 4.00537 11.6304 4.00537 8.59637C4.00537 5.56236 6.4878 3.08008 9.52166 3.08008Z" fill="white"/>
        <path fill-rule="evenodd" clip-rule="evenodd" d="M14.4782 5.23438H9.52093C7.79329 5.23438 6.37988 6.64789 6.37988 8.37546V8.81899C6.37988 10.5466 7.79329 11.9601 9.52093 11.9601H12.8858L14.4052 13.3306V11.9601H14.4782C16.2058 11.9601 17.6193 10.5466 17.6193 8.81899V8.37546C17.6193 6.64789 16.2058 5.23438 14.4782 5.23438Z" fill="#232828"/>
        <path fill-rule="evenodd" clip-rule="evenodd" d="M9.66688 15.2005C7.68373 15.5741 6.3535 16.2995 5.81654 18.1913C5.51218 19.2633 5.52568 20.4485 5.69435 21.5807C7.50365 22.7738 9.67037 23.4689 11.9997 23.4689C14.3417 23.4689 16.5193 22.7663 18.3346 21.5613C18.6799 18.9468 18.0577 16.4886 15.7246 15.5568C14.2151 14.9537 11.3877 14.8764 9.66688 15.2005Z" fill="white"/>
        <path fill-rule="evenodd" clip-rule="evenodd" d="M18.3346 21.5607C18.6422 19.2315 18.1814 17.0263 16.4272 15.9141C17.655 17.4778 17.6752 19.9438 17.0323 22.3073C17.4838 22.0864 17.9187 21.8367 18.3346 21.5607Z" fill="url(#paint0_linear_8810_34988)"/>
        <path d="M12.3518 21.8604H11.6502C11.2823 21.8604 10.9842 21.5618 10.9842 21.1941V20.2816H10.0786C9.71063 20.2816 9.4126 19.9833 9.4126 19.6155V18.9048C9.4126 18.537 9.71063 18.239 10.0786 18.239H10.9842V17.3265C10.9842 16.9582 11.2823 16.6602 11.6502 16.6602H12.3518C12.7195 16.6602 13.0181 16.9582 13.0181 17.3265V18.239H13.9231C14.2909 18.239 14.5893 18.537 14.5893 18.9048V19.6155C14.5893 19.9833 14.2909 20.2816 13.9231 20.2816H13.0181V21.1941C13.0181 21.5618 12.7195 21.8604 12.3518 21.8604Z" fill="#1A847C"/>
        <path fill-rule="evenodd" clip-rule="evenodd" d="M14.2333 7.23438C14.6282 7.23438 14.9481 7.5544 14.9481 7.94918C14.9481 8.344 14.6282 8.66398 14.2333 8.66398C13.8386 8.66398 13.5186 8.344 13.5186 7.94918C13.5186 7.5544 13.8386 7.23438 14.2333 7.23438Z" fill="white"/>
        <path fill-rule="evenodd" clip-rule="evenodd" d="M9.76648 7.23438C10.1614 7.23438 10.4813 7.5544 10.4813 7.94918C10.4813 8.344 10.1614 8.66398 9.76648 8.66398C9.37179 8.66398 9.05176 8.344 9.05176 7.94918C9.05176 7.5544 9.37179 7.23438 9.76648 7.23438Z" fill="white"/>
        <path d="M13.005 9.574C12.7542 9.85515 12.2926 10.0281 11.7935 10.0281C11.2894 10.0281 10.8242 9.85168 10.5752 9.56641" stroke="white" stroke-width="0.3" stroke-miterlimit="22.9256"/>
    </g>
    <defs>
        <linearGradient id="paint0_linear_8810_34988" x1="14.6492" y1="27.3748" x2="15.6672" y2="27.8371" gradientUnits="userSpaceOnUse">
            <stop stop-color="#EBF8F8"/>
            <stop offset="1" stop-color="#FEFEFE"/>
        </linearGradient>
        <clipPath id="clip0_8810_34988">
            <rect width="24" height="24" fill="white"/>
        </clipPath>
    </defs>
</svg>
