<svg width="50" height="50" viewBox="0 0 50 50" fill="none" xmlns="http://www.w3.org/2000/svg">
    <circle cx="25" cy="25" r="25" fill="#D3E5E5"/>
    <g clip-path="url(#clip0_8897_68086)">
        <path d="M31.5 37.25H17.5C16.532 37.25 15.75 36.468 15.75 35.5V14.5C15.75 13.532 16.532 12.75 17.5 12.75H24.5V18.875C24.5 20.3242 25.6758 21.5 27.125 21.5H33.25V35.5C33.25 36.468 32.468 37.25 31.5 37.25ZM27.125 19.75C26.6438 19.75 26.25 19.3562 26.25 18.875V12.7773C26.4031 12.8156 26.5453 12.8922 26.6547 13.007L32.993 19.3453C33.1078 19.4602 33.1844 19.5969 33.2227 19.75H27.125ZM17.5 11C15.5695 11 14 12.5695 14 14.5V35.5C14 37.4305 15.5695 39 17.5 39H31.5C33.4305 39 35 37.4305 35 35.5V19.9633C35 19.2687 34.7211 18.6016 34.2289 18.1094L27.8961 11.7711C27.4039 11.2789 26.7367 11 26.0422 11H17.5ZM23.625 23.25C22.657 23.25 21.875 24.032 21.875 25V26.75H20.125C19.157 26.75 18.375 27.532 18.375 28.5V30.25C18.375 31.218 19.157 32 20.125 32H21.875V33.75C21.875 34.718 22.657 35.5 23.625 35.5H25.375C26.343 35.5 27.125 34.718 27.125 33.75V32H28.875C29.843 32 30.625 31.218 30.625 30.25V28.5C30.625 27.532 29.843 26.75 28.875 26.75H27.125V25C27.125 24.032 26.343 23.25 25.375 23.25H23.625ZM23.625 27.625V25H25.375V27.625C25.375 28.1063 25.7688 28.5 26.25 28.5H28.875V30.25H26.25C25.7688 30.25 25.375 30.6437 25.375 31.125V33.75H23.625V31.125C23.625 30.6437 23.2312 30.25 22.75 30.25H20.125V28.5H22.75C22.9797 28.5 23.2039 28.407 23.368 28.243C23.532 28.0789 23.625 27.8547 23.625 27.625Z" fill="#1A847C"/>
    </g>
    <defs>
        <clipPath id="clip0_8897_68086">
            <rect width="21" height="28" fill="white" transform="translate(14 11)"/>
        </clipPath>
    </defs>
</svg>
