<svg width="24" height="24" viewBox="0 0 24 24" fill="none" xmlns="http://www.w3.org/2000/svg">
    <circle cx="12" cy="12" r="12" fill="#D3E5E5"/>
    <g clip-path="url(#clip0_8810_35059)">
        <path d="M4.72514 5.53828L4.21621 5.14453L3.42871 6.15971L3.93764 6.55346L19.2725 18.4597L19.7814 18.8535L20.5689 17.8383L20.06 17.4445L17.4644 15.4302C18.5867 14.2517 19.3448 12.9151 19.7144 11.999C18.9109 9.9981 16.243 5.999 12.0001 5.999C10.2082 5.999 8.70014 6.7115 7.4921 7.6865L4.72514 5.53828ZM9.38853 9.15971C10.0742 8.52757 10.993 8.14185 12.0001 8.14185C14.1296 8.14185 15.8573 9.86953 15.8573 11.999C15.8573 12.6606 15.6912 13.282 15.3992 13.8258L14.3626 13.0195C14.4992 12.7061 14.5742 12.3606 14.5742 11.999C14.5742 10.5794 13.4225 9.42757 12.0028 9.42757C11.8314 9.42757 11.6626 9.44364 11.4992 9.47578L11.81 11.0347L9.38853 9.15971ZM15.3457 17.1044L13.4198 15.5856C12.9805 15.7597 12.501 15.8561 12.0001 15.8561C9.87067 15.8561 8.143 14.1285 8.143 11.999C8.143 11.8142 8.15639 11.6347 8.1805 11.4579L5.72425 9.52132C5.04121 10.4213 4.55639 11.324 4.28585 11.999C5.08943 13.9999 7.75728 17.999 12.0001 17.999C13.2564 17.999 14.3734 17.6481 15.3457 17.1044ZM12.1287 14.5677L9.47425 12.4758C9.69657 13.6677 10.7439 14.5704 12.0001 14.5704C12.043 14.5704 12.0859 14.5704 12.1287 14.5677Z" fill="#272A3D"/>
    </g>
    <defs>
        <clipPath id="clip0_8810_35059">
            <rect width="17.1429" height="13.7143" fill="white" transform="translate(3.42871 5.14258)"/>
        </clipPath>
    </defs>
</svg>
